<?xml version="1.0" encoding="utf-8"?><svg width="50" height="50" fill="none" xmlns="http://www.w3.org/2000/svg" viewBox="0 0 50 50"><path d="M25 3c-8.273 0-15 6.727-15 15 0 5.059 1.93 8.066 3.75 10.156.91 1.047 1.79 1.89 2.375 2.657.586.765.875 1.382.875 2.187v10c0 1.645 1.355 3 3 3h1.156c.446 1.719 1.992 3 3.844 3 1.852 0 3.398-1.281 3.844-3H30c1.645 0 3-1.355 3-3V33c0-1.129.332-1.91.906-2.719.575-.808 1.438-1.613 2.344-2.593C38.059 25.723 40 22.965 40 18c0-8.273-6.727-15-15-15zm0 2c7.191 0 13 5.809 13 13 0 4.469-1.559 6.512-3.25 8.344-.844.918-1.73 1.746-2.469 2.781C31.543 30.16 31 31.438 31 33v5H19v-5c0-1.348-.586-2.46-1.313-3.406-.726-.946-1.597-1.79-2.437-2.75C13.57 24.918 12 22.574 12 18c0-7.191 5.809-13 13-13zm-4.094 12.969c-.043.008-.086.02-.125.031a.993.993 0 00-.781.703c-.105.367.004.758.281 1.016L24 23.437V36h2V23.437l3.719-3.718a1.014 1.014 0 000-1.438 1.014 1.014 0 00-1.438 0L25 21.563l-3.281-3.282a1.004 1.004 0 00-.813-.312zM19 40h12v3c0 .555-.445 1-1 1h-7.813a1.018 1.018 0 00-.406 0H20c-.555 0-1-.445-1-1v-3zm4.281 6h3.438c-.344.598-.973 1-1.719 1a1.968 1.968 0 01-1.719-1z" fill="#fff"/></svg>