<?xml version="1.0" encoding="utf-8"?><svg width="50" height="50" fill="none" xmlns="http://www.w3.org/2000/svg" viewBox="0 0 50 50"><g clip-path="url(#dclip0)"><path d="M19 5c-1.645 0-3 1.355-3 3v3H3c-1.645 0-3 1.355-3 3v8.688a1.025 1.025 0 000 .593V42c0 1.645 1.355 3 3 3h44c1.645 0 3-1.355 3-3V23.187a1.018 1.018 0 000-.406V14c0-1.645-1.355-3-3-3H34V8c0-1.645-1.355-3-3-3H19zm0 2h12c.563 0 1 .438 1 1v3H18V8c0-.563.438-1 1-1zM3 13h44c.563 0 1 .438 1 1v8h-7c0-1.094-.906-2-2-2h-5c-1.094 0-2 .906-2 2H18c0-1.094-.906-2-2-2h-5c-1.094 0-2 .906-2 2H2v-8c0-.563.438-1 1-1zm8 9h5v.688a1.024 1.024 0 000 .593V24h-5v-.813a1.018 1.018 0 000-.406V22zm23 0h5v.688a1.024 1.024 0 000 .593V24h-5v-.813a1.018 1.018 0 000-.406V22zM2 24h7c0 1.094.906 2 2 2h5c1.094 0 2-.906 2-2h14c0 1.094.906 2 2 2h5c1.094 0 2-.906 2-2h7v18c0 .563-.438 1-1 1H3c-.563 0-1-.438-1-1V24z" fill="#fff"/></g><defs><clipPath id="dclip0"><path fill="#fff" d="M0 0h50v50H0z"/></clipPath></defs></svg>