<?xml version="1.0" encoding="utf-8"?><svg width="50" height="50" fill="none" xmlns="http://www.w3.org/2000/svg" viewBox="0 0 50 50"><path d="M1.719 2.781a1.002 1.002 0 00-.781 1V39.47c0 4.246 2.207 6.64 4.375 7.718 2.168 1.079 4.312 1.032 4.312 1.032h30.75v-.094c.48.055 1 .094 1 .094s1.922.011 3.844-1.094c1.875-1.078 3.722-3.36 3.812-7.313a.48.48 0 00.032-.062v-.063c.003-.05.003-.105 0-.156V14.438v-.032s.015-1.172-.594-2.375c-.61-1.203-2.028-2.5-4.25-2.5V9.5H34.75v2h5.563A4.37 4.37 0 0040 12c-.61 1.191-.625 2.375-.625 2.375v24.25c-.004.36.184.695.496.879.313.18.695.18 1.008 0 .313-.184.5-.52.496-.879v-24.25c0-.027.04-.75.406-1.469.375-.73.903-1.375 2.438-1.375 1.531 0 2.058.66 2.437 1.406.371.735.438 1.473.438 1.5h-.031v25.094c0 3.559-1.422 5.059-2.844 5.875-1.422.817-2.844.813-2.844.813s-1.691-.024-3.375-.875c-1.684-.852-3.312-2.348-3.312-5.875V3.78c0-.55-.45-1-1-1H1.938a1.024 1.024 0 00-.22 0zm1.219 2h29.75V39.47c0 3.289 1.394 5.441 3.03 6.75H9.595s-.43.004-1.063-.094a8.472 8.472 0 01-1.062-.25 7.83 7.83 0 01-1.25-.469 6.967 6.967 0 01-.625-.343c-1.43-.899-2.656-2.45-2.656-5.594V4.78zm4 6.219c-.551.078-.938.59-.86 1.14.078.551.59.938 1.14.86h19.72c.359.004.695-.184.879-.496a1.01 1.01 0 000-1.008c-.184-.312-.52-.5-.88-.496H6.939zm0 4c-.551.078-.938.59-.86 1.14.078.551.59.938 1.14.86h19.72c.359.004.695-.184.879-.496a1.01 1.01 0 000-1.008c-.184-.312-.52-.5-.88-.496H6.939zm.468 8c-.55.078-.937.59-.86 1.14.08.551.59.938 1.142.86h6.78c.36.004.696-.184.88-.496a1.01 1.01 0 000-1.008c-.184-.312-.52-.5-.88-.496H7.407zm11.532 0c-.551.078-.938.59-.86 1.14.078.551.59.938 1.14.86h7.72c.359.004.695-.184.879-.496a1.01 1.01 0 000-1.008c-.184-.312-.52-.5-.88-.496H18.939zM7.406 27c-.55.078-.937.59-.86 1.14.08.551.59.938 1.142.86h6.78c.36.004.696-.184.88-.496a1.01 1.01 0 000-1.008c-.184-.312-.52-.5-.88-.496H7.407zm11.532 0c-.551.078-.938.59-.86 1.14.078.551.59.938 1.14.86h7.72c.359.004.695-.184.879-.496a1.01 1.01 0 000-1.008c-.184-.312-.52-.5-.88-.496H18.939zm0 3.781c-.551.078-.938.59-.86 1.14.078.552.59.938 1.14.86h7.72c.359.004.695-.183.879-.496a1.01 1.01 0 000-1.008c-.184-.312-.52-.5-.88-.496H19.22a.754.754 0 00-.188 0h-.093zM7.406 31c-.55.078-.937.59-.86 1.14.08.551.59.938 1.142.86h6.78c.36.004.696-.184.88-.496a1.01 1.01 0 000-1.008c-.184-.312-.52-.5-.88-.496H7.407zm11.532 3.781c-.551.078-.938.59-.86 1.14.078.552.59.938 1.14.86h7.72c.359.004.695-.183.879-.496a1.01 1.01 0 000-1.008c-.184-.312-.52-.5-.88-.496H19.22a.754.754 0 00-.188 0h-.093zM7.406 35c-.55.078-.937.59-.86 1.14.08.551.59.938 1.142.86h6.78c.36.004.696-.184.88-.496a1.01 1.01 0 000-1.008c-.184-.312-.52-.5-.88-.496H7.407zm11.532 3.531c-.551.078-.938.59-.86 1.14.078.552.59.938 1.14.86h7.72c.359.004.695-.183.879-.496a1.01 1.01 0 000-1.008c-.184-.312-.52-.5-.88-.496H18.939zM7.406 39c-.55.078-.937.59-.86 1.14.08.551.59.938 1.142.86h6.78c.36.004.696-.184.88-.496a1.01 1.01 0 000-1.008c-.184-.312-.52-.5-.88-.496H7.407z" fill="#fff"/></svg>