<?xml version="1.0" encoding="utf-8"?><svg width="50" height="50" fill="none" xmlns="http://www.w3.org/2000/svg" viewBox="0 0 50 50"><path d="M17 3c-.938 0-1.883.313-2.656.969A3.86 3.86 0 0013 6.906v21.532c-.441.16-.844.207-1.656.906C10.168 30.359 9 32.184 9 34.906c0 1.973.785 3.778 1.094 4.5v.032l2.812 5.593c.004.008-.004.024 0 .032 1.477 3.042 4.633 4.937 8 4.937H30c4.945 0 9-4.055 9-9V25c0-.82-.129-1.95-.688-3-.558-1.05-1.714-2-3.312-2-1.094 0-1.906.375-2.563.875-.109-.3-.164-.637-.312-.906C31.504 18.848 30.367 18 29 18a4.01 4.01 0 00-2.656.969C25.68 17.87 24.559 17 23 17c-.781 0-1.426.246-2 .594V7c0-1.266-.54-2.324-1.313-3-.773-.676-1.75-1-2.687-1zm0 2c.46 0 1 .176 1.375.5S19 6.266 19 7v16h2v-2c0-.875.66-2 2-2 1.34 0 2 1.125 2 2v1a.999.999 0 001 .984.999.999 0 001-.984c0-.535.133-1.066.406-1.406.274-.34.676-.594 1.594-.594.633 0 .996.258 1.375.938.379.68.625 1.78.625 3.062h2c0-.582.105-1.09.344-1.406.238-.317.62-.594 1.656-.594.902 0 1.246.34 1.563.938.316.597.437 1.48.437 2.062v16c0 3.855-3.145 7-7 7h-9.094c-2.62 0-5.09-1.5-6.218-3.844l-2.782-5.562c-.004-.008.004-.024 0-.032-.293-.687-.906-2.242-.906-3.656 0-2.18.832-3.32 1.656-4.031.824-.71 1.594-.906 1.594-.906A1 1 0 0015 29V6.906c0-.668.25-1.086.625-1.406C16 5.18 16.539 5 17 5zm4.906 24.969c-.043.008-.086.02-.125.031A1.002 1.002 0 0021 31v9c-.004.36.184.695.496.879.313.18.695.18 1.008 0 .312-.184.5-.52.496-.879v-9a1 1 0 00-1.094-1.031zm5 0c-.043.008-.086.02-.125.031A1.002 1.002 0 0026 31v9c-.004.36.184.695.496.879.313.18.695.18 1.008 0 .312-.184.5-.52.496-.879v-9a1 1 0 00-1.094-1.031zm5 0c-.043.008-.086.02-.125.031A1.002 1.002 0 0031 31v9c-.004.36.184.695.496.879.313.18.695.18 1.008 0 .312-.184.5-.52.496-.879v-9a1 1 0 00-1.094-1.031z" fill="#fff"/></svg>