<?xml version="1.0" encoding="utf-8"?><svg width="50" height="50" fill="none" xmlns="http://www.w3.org/2000/svg" viewBox="0 0 50 50"><path d="M24.875 3.313c-4.691.105-7.66 2.003-8.938 4.937-1.214 2.793-.96 6.313-.093 9.969-.465.547-.848 1.316-.75 2.468v.063c.168 1.219.535 2.078 1 2.688.222.289.539.304.812.468a11.004 11.004 0 001.407 3.688.991.991 0 00.187.406s.102.129.125.156c.313.469.469 1.121.469 1.844 0 .77-.012 1.484-.094 2.281-.3.758-1.05 1.364-2.25 1.969-1.254.633-2.895 1.215-4.563 1.938-1.667.722-3.359 1.59-4.718 2.968-1.36 1.38-2.332 3.29-2.469 5.782L4.937 46h40.126L45 44.937c-.137-2.492-1.086-4.398-2.438-5.78-1.351-1.384-3.05-2.247-4.718-2.97-1.668-.722-3.32-1.3-4.594-1.937-1.234-.617-2.008-1.246-2.344-2.031a28.832 28.832 0 01-.093-2.532c0-.535.183-1.019.5-1.5.007-.011.023-.019.03-.03a.98.98 0 00.312-.531c.607-1.04 1.11-2.36 1.345-3.689.313-.164.664-.183.906-.5.48-.628.762-1.523.875-2.75.09-1.058-.215-1.828-.687-2.406.52-1.601 1.136-4.164.937-6.781-.11-1.438-.488-2.871-1.343-4.063-.774-1.078-2.024-1.816-3.594-2.156-1.059-1.414-2.98-1.968-5.188-1.968h-.031zm.031 2h.032c1.996.007 3.273.57 3.687 1.28l.25.438.5.063c1.375.191 2.129.722 2.688 1.5.558.777.878 1.863.968 3.062.184 2.403-.511 5.219-.968 6.5L31.75 19l.781.406c-.008.028.32.36.282 1.094v.031c-.094.942-.336 1.473-.5 1.688-.169.218-.254.187-.22.187h-.874l-.125.875c-.172 1.297-.832 2.93-1.407 3.75h-.03c-.06.086-.102.188-.157.282-.262.304-.656.707-1.219 1.187-.933.797-2.172 1.5-3.281 1.5-1.102 0-2.352-.738-3.313-1.563-.832-.714-1.328-1.328-1.468-1.5-.004-.007.004-.023 0-.03-.59-.852-1.266-2.345-1.438-3.626l-.093-.875h-.813a.58.58 0 01-.219-.187c-.175-.23-.425-.77-.562-1.688V20.5c-.004-.016.004-.016 0-.031-.016-.758.453-1.18.375-1.125l.562-.407-.156-.687c-.922-3.645-1.066-6.945-.094-9.188.973-2.234 2.942-3.648 7.125-3.75zM21.094 30.53C22.148 31.31 23.469 32 25 32c1.5 0 2.785-.656 3.813-1.406.003.61.023 1.234.093 2v.125l.063.125c.175.46.425.851.718 1.218-.011.04-.023.083-.03.126 0 0-.239.656-.938 1.374-.7.72-1.785 1.438-3.719 1.438-1.926 0-3.05-.75-3.781-1.5-.73-.75-.969-1.438-.969-1.438.29-.374.527-.777.688-1.25l.062-.187c.086-.758.094-1.441.094-2.094zm10.156 4.907c.352.226.715.437 1.094.624 1.46.727 3.117 1.29 4.687 1.97 1.57.679 3.035 1.449 4.094 2.53.844.864 1.352 2.012 1.625 3.438H7.25c.273-1.426.777-2.574 1.625-3.438 1.063-1.081 2.555-1.851 4.125-2.53 1.57-.68 3.21-1.239 4.656-1.97.36-.183.727-.374 1.063-.593.222.402.566.925 1.062 1.437C20.801 37.957 22.527 39 25 39c2.465 0 4.156-1.031 5.156-2.063a6.282 6.282 0 001.094-1.5z" fill="#fff"/></svg>