<?xml version="1.0" encoding="utf-8"?><svg width="21" height="21" fill="none" xmlns="http://www.w3.org/2000/svg" viewBox="0 0 21 21"><path d="M17.928 3.072c-4.096-4.096-10.76-4.096-14.856 0-4.096 4.095-4.096 10.76 0 14.856A10.472 10.472 0 0010.5 21c2.69 0 5.38-1.024 7.428-3.072 4.096-4.096 4.096-10.76 0-14.856zm1.275 4.505c-2.367.2-4.508 1.011-6.291 2.282a20.197 20.197 0 00-1.576-2.037c1.163-1.727 1.897-3.778 2.086-6.026A9.124 9.124 0 0117 3.999a9.124 9.124 0 012.204 3.578zm-7.077-6.116c-.128 2.015-.728 3.842-1.702 5.393-2.073-2.061-4.143-3.232-5.313-3.788A9.175 9.175 0 0110.5 1.313c.545 0 1.088.053 1.626.15zm-8.13 2.543c.798.324 3.24 1.454 5.666 3.926-1.926 2.365-4.829 3.867-8.219 4.072-.464-2.824.381-5.823 2.553-7.998zM1.753 13.3c3.566-.28 6.665-1.91 8.78-4.417.464.544.92 1.142 1.355 1.795-2.373 2.107-3.915 5.115-4.188 8.569a9.124 9.124 0 01-5.947-5.947zm7.244 6.256c.19-3.143 1.5-5.861 3.578-7.777 1.051 1.834 1.921 4.059 2.415 6.732a9.207 9.207 0 01-5.993 1.045zM17 17a9.285 9.285 0 01-.82.72c-.558-2.679-1.483-4.917-2.58-6.779 1.66-1.189 3.682-1.924 5.938-2.068.511 2.862-.332 5.92-2.538 8.127z" fill="#fff"/></svg>