<?xml version="1.0" encoding="utf-8"?><svg width="15" height="21" fill="none" xmlns="http://www.w3.org/2000/svg" viewBox="0 0 15 21"><path d="M14.348 0H7.826C6.473 0 3.913.823 3.913 3.938V8.53H.653A.654.654 0 000 9.187v3.938c0 .362.292.656.652.656h3.261v6.563c0 .362.292.656.652.656H9.13c.36 0 .653-.294.653-.656V13.78h3.26c.32 0 .591-.232.644-.548l.652-3.937a.66.66 0 00-.146-.532.65.65 0 00-.497-.233H9.783V6.562c0-.526.356-.647.657-.656h3.908c.36 0 .652-.294.652-.656V.656A.654.654 0 0014.348 0zm-.652 4.594h-3.261c-.787 0-1.957.524-1.957 1.968v2.625c0 .363.292.657.652.657h3.795l-.435 2.625H9.13a.654.654 0 00-.652.656v6.563h-3.26v-6.563a.654.654 0 00-.653-.656h-3.26V9.844h3.26c.36 0 .652-.294.652-.656v-5.25c0-2.529 2.345-2.624 2.61-2.626h5.869v3.282z" fill="#fff"/></svg>