<?xml version="1.0" encoding="utf-8"?><svg width="143" height="58" fill="none" xmlns="http://www.w3.org/2000/svg" viewBox="0 0 143 58"><path d="M78.754 19.938h3.527V37h-3.527V25.668L71.922 37h-3.516V19.937h3.516v11.356l6.832-11.355zm22.652 21.257H98.16V37H87.871v4.184h-3.328l-.188-7.008h1.29c.695-.578 1.23-1.426 1.605-2.543.383-1.125.64-2.516.773-4.172l.493-7.523h11.18v14.238h1.992l-.282 7.02zm-11.73-7.02h6.504v-11.39h-4.325l-.293 4.488c-.234 3.008-.863 5.309-1.886 6.903zm24.129-4.57h-6.75v4.57h7.922V37h-11.438V19.937h11.414v2.848h-7.898v4.067h6.75v2.753zM124.926 37v-6.152h-2.86L118.984 37h-3.796l3.644-7.277c-1.758-.97-2.637-2.473-2.637-4.512 0-1.672.547-2.965 1.641-3.879 1.094-.914 2.621-1.379 4.582-1.395h6.035V37h-3.527zm-5.215-11.531c0 .953.23 1.644.691 2.074.469.43 1.168.645 2.098.645h2.426v-5.403H122.5c-1.859 0-2.789.895-2.789 2.684z" fill="#fff"/><path d="M32.617 12.23c-6.755 0-20.285-5.475-20.285-12.23h-.1a20.385 20.385 0 0020.384 20.385 12.231 12.231 0 11-12.23 12.235A20.383 20.383 0 000 12.236v.1c6.753 0 12.229 13.523 12.232 20.279h-.002A20.385 20.385 0 1032.617 12.23z" fill="url(#ppaint0_linear)"/><defs><linearGradient id="ppaint0_linear" x1="42.241" y1="45.845" x2="11.448" y2="3.551" gradientUnits="userSpaceOnUse"><stop offset=".295" stop-color="#E73959"/><stop offset=".384" stop-color="#E73D58"/><stop offset=".477" stop-color="#E74955"/><stop offset=".571" stop-color="#E95E51"/><stop offset=".666" stop-color="#EA7B4B"/><stop offset=".761" stop-color="#EDA044"/><stop offset=".857" stop-color="#EFCE3B"/><stop offset=".868" stop-color="#F0D43A"/></linearGradient></defs></svg>