<?xml version="1.0" encoding="utf-8"?><svg width="22" height="17" fill="none" xmlns="http://www.w3.org/2000/svg" viewBox="0 0 22 17"><path d="M16.904.881H5.151C2.63.881.58 2.931.58 5.452v6.53c0 2.52 2.05 4.57 4.57 4.57h11.754c2.52 0 4.57-2.05 4.57-4.57v-6.53c0-2.52-2.05-4.57-4.57-4.57zm3.265 11.1c0 1.801-1.465 3.266-3.265 3.266H5.151a3.269 3.269 0 01-3.265-3.265v-6.53c0-1.8 1.464-3.265 3.265-3.265h11.753c1.8 0 3.265 1.465 3.265 3.265v6.53z" fill="#fff"/><path d="M14.557 8.12L8.681 5.508a.653.653 0 00-.918.597v5.224a.652.652 0 00.918.596l5.876-2.611a.654.654 0 000-1.194zm-5.489 2.204V7.11l3.617 1.607-3.617 1.607z" fill="#fff"/></svg>