<?xml version="1.0" encoding="utf-8"?>
<!-- Generator: Adobe Illustrator 23.0.6, SVG Export Plug-In . SVG Version: 6.00 Build 0)  -->
<svg version="1.1" id="Слой_1" xmlns="http://www.w3.org/2000/svg" xmlns:xlink="http://www.w3.org/1999/xlink" x="0px" y="0px"
	 viewBox="0 0 68 68" style="enable-background:new 0 0 68 68;" xml:space="preserve">
<style type="text/css">
	.st0{fill:#FFFFFF;}
</style>
<symbol  id="logo" viewBox="-67 -23.6 134 47.2">
	<g>
		<path class="st0" d="M-4.8-15.2c-3.9,0-7.1,3.2-7.1,7.1V5.6h2.8l0.5-3.1h3.8l0.3-1.9l-3.3-2.4l0-6.3c0-1.9,1.5-3.4,3.4-3.4h0.3
			v-3.7H-4.8z"/>
		<polygon class="st0" points="-48.6,16.9 -57.8,23.6 -67,16.9 -67,11.6 -57.8,18.3 -48.6,11.6 		"/>
		<path class="st0" d="M67,2.5h-4l0-12.9c-0.8-0.7-1.8-1.1-2.9-1.1c-2.3,0-4.2,1.9-4.2,4.2v9.8h-4l0-8.8v-1.7c0-4.2,3.4-7.6,7.6-7.6
			c1.3,0,2.5,0.3,3.5,0.9v-0.1c0-2.8-2.3-5.1-5.1-5.1h-1.5v-3.7l1.7,0c4.9,0,8.9,4,8.9,8.9L67,2.5z"/>
		<path class="st0" d="M27.8-10.2c-0.7,0-1.4-0.3-1.9-0.8c-0.5-0.5-0.8-1.2-0.8-1.9c0-0.7,0.3-1.4,0.8-1.9c0.5-0.5,1.2-0.8,1.9-0.8
			c0.7,0,1.4,0.3,1.9,0.8c0.5,0.5,0.8,1.2,0.8,1.9c0,0.7-0.3,1.4-0.8,1.9C29.2-10.5,28.5-10.2,27.8-10.2z"/>
		<path class="st0" d="M-20.4-7.6c1.1,0,1.9-0.9,1.9-1.9c0-1.1-0.9-1.9-1.9-1.9h-6.3v-3.7h6.5c3.1,0,5.7,2.5,5.7,5.7
			s-2.5,5.7-5.7,5.7h-2c-0.7,0-1.3,0.6-1.3,1.3s0.6,1.3,1.3,1.3h5.3v3.7h-5.5c-2.8,0-5.1-2.3-5.1-5.1s2.3-5.1,5.1-5.1H-20.4z"/>
		<path class="st0" d="M-38.5,2.8c-5,0-9.1-4.1-9.1-9.1c0-5,4.1-9.1,9.1-9.1c5,0,9.1,4.1,9.1,9.1C-29.3-1.3-33.4,2.8-38.5,2.8z
			 M-38.5-11.5c-2.8,0-5.1,2.3-5.1,5.1c0,2.8,2.3,5.1,5.1,5.1c2.8,0,5.1-2.3,5.1-5.1C-33.3-9.2-35.6-11.5-38.5-11.5z"/>
		<path class="st0" d="M23.2,2.5c-3.9,0-7.1-3.2-7.1-7.1v-10.6h4l0,10.6c0,1.9,1.5,3.4,3.4,3.4h0.3v3.7H23.2z"/>
		<path class="st0" d="M13.3-0.6c-1.7,2.1-4.2,3.4-7.1,3.4c-5,0-9.1-4.1-9.1-9.1c0-5,4.1-9.1,9.1-9.1c2.4,0,4.6,1,6.3,2.5l-2.8,2.8
			c-0.9-0.8-2.1-1.3-3.4-1.3c-2.8,0-5.1,2.3-5.1,5.1c0,2.8,2.3,5.1,5.1,5.1c1.2,0,2.3-0.4,3.1-1.1L4.8-5.6v-4.6L13.3-4V-0.6z"/>
		<path class="st0" d="M-50.3-4.8c0,4.2-3.4,7.6-7.6,7.6c-1.3,0-2.4-0.3-3.5-0.8l-1.2,7.9h-2.8v-25.1h4v12.9
			c0.8,0.7,1.8,1.1,2.9,1.1c2.3,0,4.2-1.9,4.2-4.2v-9.8h4L-50.3-4.8z"/>
		<path class="st0" d="M46.7,0.1c-1.8,1.8-4.1,2.6-6.4,2.7c-1.3,0-2.4-0.3-3.5-0.8l-1.2,7.9h-2.8v-21.5c0.3-0.4,0.6-0.8,1-1.2
			c3.6-3.6,9.4-3.6,12.9,0C50.3-9.3,50.3-3.4,46.7,0.1z M43.9-10c-1.9-1.9-5.1-2-7.1-0.2v7.6c2,1.8,5.1,1.8,7.1-0.2
			C45.9-4.7,45.9-8,43.9-10z"/>
	</g>
</symbol>
<use xlink:href="#logo"  width="134" height="47.2" x="-67" y="-23.6" transform="matrix(0.8124 0 0 -0.8124 34.1811 34.1454)" style="overflow:visible;"/>
</svg>
