<?xml version="1.0" encoding="utf-8"?>
<!-- Generator: Adobe Illustrator 23.0.6, SVG Export Plug-In . SVG Version: 6.00 Build 0)  -->
<svg version="1.1" id="Слой_1" xmlns="http://www.w3.org/2000/svg" xmlns:xlink="http://www.w3.org/1999/xlink" x="0px" y="0px"
	 viewBox="0 0 110 211" style="enable-background:new 0 0 110 211;" xml:space="preserve">
<style type="text/css">
	.st0{fill:#C82246;}
	.st1{fill:#C0E2F8;}
	.st2{fill:#FFFFFF;}
	.st3{fill:#362B65;}
	.st4{fill:#E1E34A;}
	.st5{fill:#DE948A;}
	.st6{fill:#13183C;}
</style>
<g>
	<g>
		<path class="st0" d="M105.87,157.91c-6.02-2.84-11.85-0.92-16.98,0.77c-2.29,0.76-4.44,1.46-6.51,1.79l-5.9-19.3
			c-2.76-9.03-12.77-13.97-22.36-11.04c-9.59,2.93-15.14,12.62-12.38,21.65c0,0,2.5,8.17,4.9,16.03c0,0-0.01,0-0.01,0
			c-3.86,1.85-11.78,1.53-19.46-2.63c-1.28-0.7-2.9-0.22-3.6,1.07c-0.7,1.29-0.22,2.9,1.07,3.6c3.28,1.78,6.75,3.03,10.14,3.73
			c4.99,1.03,9.77,0.83,13.43-0.67c1.56,5.12,2.8,9.16,2.8,9.17c1.11,3.65,3.44,6.56,6.43,8.59c1.59,3.79,2.7,7.85,1.87,9.81
			c-0.18,0.43-0.45,0.75-1.22,0.95c-1.42,0.34-2.29,1.8-1.93,3.22c0.36,1.42,1.8,2.29,3.23,1.93c0.14-0.03,0.28-0.07,0.42-0.12
			c2.07-0.63,3.59-1.98,4.41-3.92c1.08-2.56,0.74-5.89-0.14-9.1c0.63,0.13,1.26,0.24,1.9,0.31c4.98,0.54,9.5-0.95,13.39-3.59
			c1.91,4.63,3.61,10.9,2.32,13.36c-0.22,0.41-0.52,0.72-1.3,0.84c-1.45,0.24-2.43,1.61-2.19,3.06c0.24,1.45,1.61,2.43,3.06,2.19
			c0.37-0.06,0.72-0.14,1.06-0.25c1.81-0.55,3.21-1.7,4.08-3.37c2.99-5.71-1.33-16.19-2.78-19.38c0.57-0.57,1.12-1.16,1.64-1.78
			c0.46-0.54,0.82-1.18,1.09-1.89c0.9-2.06,0.97-4.24,0.63-6.5c-0.41-4.71-2.11-9.37-2.71-9.83l-0.39-1.27
			c2.3-0.43,4.51-1.15,6.61-1.84c4.85-1.6,9.04-2.98,13.24-1c0.59,0.28,1.24,0.31,1.82,0.13c0.66-0.2,1.23-0.67,1.55-1.34
			C107.68,160.01,107.13,158.5,105.87,157.91z"/>
		<g>
			<path class="st1" d="M74.57,128.95c-3.18-4.22-8.13-6.78-13.23-6.86c-0.49-0.01-0.89,0.38-0.9,0.87
				c-0.01,0.49,0.38,0.89,0.87,0.9c4.56,0.07,8.99,2.38,11.85,6.16c0.23,0.3,0.62,0.42,0.97,0.31c0.1-0.03,0.19-0.08,0.28-0.14
				C74.79,129.9,74.86,129.34,74.57,128.95z"/>
			<path class="st1" d="M50.34,116.27c-13.86,4.23-21.54,19.46-17.11,33.95c2.14,7.01,6.76,12.8,13.02,16.32
				c3.56,2,12.7,0.3,19.45-1.76c6.52-1.99,14.12-5.3,15.87-8.59c3.46-6.53,4.15-14.1,1.94-21.32
				C79.08,120.38,64.21,112.04,50.34,116.27z M80,155.35c-1.21,2.29-7.17,5.39-14.82,7.73c-8.19,2.5-15.61,3.29-18.06,1.91
				c-5.86-3.29-10.18-8.72-12.19-15.29c-4.14-13.55,3.01-27.79,15.94-31.73c12.93-3.95,26.81,3.86,30.95,17.41
				C83.88,142.15,83.23,149.24,80,155.35z"/>
		</g>
		<g>
			
				<ellipse transform="matrix(0.9564 -0.2921 0.2921 0.9564 -40.1311 20.1482)" class="st2" cx="47.41" cy="144.46" rx="3.62" ry="4.2"/>
			
				<ellipse transform="matrix(0.9564 -0.2921 0.2921 0.9564 -39.5101 24.5152)" class="st2" cx="62.34" cy="144.57" rx="3.62" ry="4.2"/>
		</g>
		<g>
			<path class="st3" d="M59.9,153.23c-0.48,0.06-0.82,0.52-0.75,1c0.2,1.41-0.73,2.96-2.07,3.44c-1.34,0.49-3.04-0.1-3.8-1.32
				c-0.21-0.34-0.62-0.48-0.99-0.37c1.55-1.75,2.84-3.77,3.8-6c0.58-1.35-0.04-2.91-1.39-3.49c-1.35-0.58-2.92,0.04-3.49,1.39
				c-2.32,5.4-7.14,9.15-12.89,10.04c-1.45,0.23-2.45,1.58-2.22,3.03c0.22,1.45,1.58,2.44,3.03,2.22c1.06-0.16,2.09-0.4,3.09-0.71
				c3.62-1.11,6.85-3.11,9.44-5.81c-0.04,0.21-0.01,0.44,0.11,0.63c1.15,1.85,3.61,2.76,5.69,2.12c0.07-0.02,0.14-0.05,0.22-0.07
				c2.12-0.77,3.54-3.12,3.23-5.35C60.83,153.5,60.39,153.16,59.9,153.23z"/>
			
				<ellipse transform="matrix(0.9564 -0.2921 0.2921 0.9564 -39.9892 19.9606)" class="st3" cx="46.85" cy="143.89" rx="3.03" ry="3.52"/>
			<path class="st3" d="M60.75,140.63c-1.6,0.49-2.43,2.39-1.87,4.25c0.57,1.86,2.33,2.97,3.92,2.49c1.6-0.49,2.43-2.39,1.87-4.25
				C64.11,141.25,62.35,140.14,60.75,140.63z"/>
		</g>
	</g>
	<g>
		<path class="st0" d="M68.52,46.24c-1.76-0.26-2.69-2.18-3.32-3.85c-0.92-2.42-1.83-4.83-2.75-7.25c-0.28-5.19-4.48-9.51-9.99-9.89
			L31.48,23.8c-0.38-0.04-0.75-0.08-1.13-0.08l-3.68-0.25c-5.94-0.41-11.07,3.9-11.47,9.63c-0.13,1.82,0.99,7.39,1.26,8.5
			c1.03,4.31,2.78,8.44,5.14,12.19c1.3,2.07,2.69,4.69,4.75,6c2.06,1.32,1.82,1.22,4.49,1.63c2.32-0.18,2.8-1.81,1.91-2.47
			c-0.52-0.39-1.77-1.02-2.33-1.34c-1.14-0.66-1.64-1.56-1.9-2.85c-0.26-1.29-0.51-2.7-1.48-3.59c1.84-1.27,3.68-4.01,4.38-6.47
			c0.98,1.56,2.08,3.11,3.52,4.03c2.06,1.32,1.82,1.22,4.49,1.63c2.32-0.18,2.8-1.81,1.91-2.47c-0.52-0.39-1.77-1.02-2.33-1.34
			c-0.67-0.39-1.11-0.88-1.42-1.47l9.22,0.64c0.19,0.67,0.45,1.32,0.74,1.96c1.42,3.1,2.85,6.2,4.27,9.3
			c0.31,0.68,0.64,1.37,1.19,1.87c1.74,1.55,3.52,1.42,5.6,0.56c0.64-0.26,1.22-0.73,1.47-1.38c0.71-1.84-1.34-1.8-2.56-1.98
			c-1.76-0.26-2.69-2.18-3.32-3.85c-0.78-2.07-1.57-4.14-2.35-6.2c3.46-0.01,6.58-1.59,8.53-4.12c0.81,1.77,1.63,3.54,2.44,5.31
			c0.31,0.68,0.64,1.37,1.19,1.87c1.74,1.55,3.52,1.42,5.6,0.56c0.64-0.26,1.22-0.73,1.47-1.38C71.79,46.38,69.75,46.42,68.52,46.24
			z"/>
		<path class="st4" d="M65.5,29.15c-0.01-0.18,0.11-0.32,0.28-0.34c0.17-0.02,0.32,0.11,0.34,0.28c0.01,0.15,0.02,0.3,0.03,0.46
			c0.03,1.48-0.44,2.82-1.39,3.88c-1.24,1.38-3.19,2.17-5.5,2.22c-5.2,0.11-10.86-3.5-12.64-8.06c-0.84-2.16-0.7-4.24,0.38-5.86
			c1.16-1.74,3.34-2.77,5.97-2.83c2.17-0.05,4.54,0.56,6.68,1.72c0.15,0.08,0.21,0.27,0.13,0.42c-0.08,0.15-0.27,0.21-0.42,0.13
			c-2.04-1.11-4.3-1.69-6.37-1.65c-2.46,0.05-4.4,0.96-5.47,2.55c-0.97,1.45-1.08,3.33-0.32,5.29c1.69,4.33,7.09,7.77,12.04,7.66
			c2.14-0.05,3.93-0.76,5.05-2.01C65.21,31.97,65.63,30.63,65.5,29.15z"/>
		<path class="st0" d="M17.98,33.06c0.61,1.25,2.2,1.92,3.52,1.49c1.32-0.42,2.22-1.89,1.99-3.26c-0.28-1.67-1.89-2.76-3.44-3.46
			c-3.25-1.48-6.9-2.22-9.72-4.42c-1.35-1.05-2.46-2.42-3.22-3.95c-1.18-2.4-1.47-5.26-0.6-7.78s2.94-4.65,5.5-5.4
			c1.48-0.43,3.14-0.39,4.49,0.36s2.29,2.29,2.11,3.82c-0.08,0.71-0.48,1.45-1.17,1.63c-0.69,0.18-1.51-0.58-1.17-1.21
			c-0.88,0-1.29,1.27-0.78,1.98c0.52,0.71,1.53,0.86,2.39,0.69c1.78-0.37,3.19-1.94,3.61-3.71s-0.06-3.68-1.05-5.21
			C18.85,2.17,15.92,0.66,13,0.79c-0.14,0.57-0.01,1.2,0.35,1.66c-1.36-0.79-3.14-0.81-4.51-0.04c0.18,0.31,0.42,0.58,0.69,0.81
			C8.36,2.99,7.1,3.22,6.07,3.84c0.02,0.36,0.14,0.72,0.34,1.03c-1.23,0.19-2.4,0.72-3.36,1.51C2.79,6.59,2.54,6.84,2.49,7.17
			C2.44,7.49,2.71,7.88,3.03,7.81C2.4,7.93,1.83,8.34,1.52,8.9c-0.26,0.48,0,1.35,0.5,1.14c-0.45,1.2-0.77,2.45-0.95,3.72
			c-0.09,0.64,0.22,1.59,0.82,1.34c-0.26,1.53-0.37,3.09-0.33,4.64c0.35-0.09,0.68-0.29,0.93-0.56c-0.21,1.79,0.03,3.62,0.68,5.29
			c0.4-0.01,0.78-0.31,0.88-0.69c0.12,1.58,0.41,3.15,0.86,4.67c0.09,0.31,0.22,0.65,0.51,0.79c0.37,0.17,0.82-0.09,1-0.45
			s0.17-0.79,0.15-1.19c0.27,0.74,0.55,1.49,1.07,2.08s1.35,0.97,2.1,0.74c-0.02-0.41-0.05-0.83-0.07-1.24
			c0.29,1.34,1.5,2.43,2.87,2.58c-0.12-0.5-0.24-0.99-0.36-1.49c0.67,1.42,1.84,2.58,3.26,3.24c0.19-0.36,0.18-0.82-0.03-1.17
			c0.09,0.59,0.24,1.2,0.62,1.67s1.05,0.74,1.6,0.51C18.19,34.29,18.43,33.45,17.98,33.06z"/>
		<path class="st0" d="M50.93,19.35c0.36-1.25,1.47-2.12,2.58-2.81c1.65-1.02,3.46-1.85,5.39-2.1c1.93-0.25,3.98,0.11,5.54,1.27
			c1.72,1.28,3.24,1.96,5.28,2.6c1.32,0.42,8.28-4.98,9.47-1.31c0.25,0.78,0.38,2.87-0.16,3.48c-3.04,3.39-9.13,4.73-12.15,4.71
			c-1.09,3.01,7.42,0.64,10.41-1.35c2.67-1.78,1.79,1.31,1.74,2.06c-0.13,2.08-1.61,2.5-3.61,3.11c-4.08,1.25-8.28,2.01-12.47,2.76
			c-1.73,0.31-3.58,0.61-5.2-0.07c-1.43-0.6-2.45-1.89-3.31-3.18c-1.19-1.79-2.2-3.71-2.99-5.71
			C50.99,21.71,50.61,20.49,50.93,19.35z"/>
		
			<ellipse transform="matrix(0.9056 -0.4241 0.4241 0.9056 -3.4232 27.8525)" class="st2" cx="60.87" cy="21.62" rx="1.65" ry="1.24"/>
		<path class="st5" d="M69.9,33.52c0.91,0.06,1.62-0.8,1.99-1.64c0.95-2.18,0.93-4.47-0.44-6.42c-1.44-0.88-3.42,0.43-3.82,1.07
			c0.62,0.1,0.66,0.01,0.94,0.58c0.28,0.56,0.66,1.77,0.75,2.39C69.51,30.85,69.71,32.19,69.9,33.52z"/>
		<circle class="st6" cx="60.5" cy="21.63" r="1.09"/>
		<path class="st0" d="M45.74,14.99c-0.73,0.07-0.93,1.04-0.87,1.77c0.21,2.89,1.26,5.64,2.46,8.28c0.43,0.94,0.89,1.9,1.63,2.63
			c0.74,0.73,1.82,1.19,2.82,0.95c0.95-0.23,1.67-1.06,2.02-1.97c0.68-1.75,0.19-3.78-0.83-5.36c-1.02-1.58-2.5-2.8-3.95-3.98
			c-0.75-0.61-1.5-1.23-2.26-1.84C46.47,15.21,46.13,14.95,45.74,14.99z"/>
		<path class="st0" d="M52.37,5.42c-0.73,0.07-0.93,1.04-0.87,1.77c0.21,2.89,1.26,5.64,2.46,8.28c0.43,0.94,0.89,1.9,1.63,2.63
			c0.74,0.73,1.82,1.19,2.82,0.95c0.95-0.23,1.67-1.06,2.02-1.97c0.68-1.75,0.19-3.78-0.83-5.36c-1.02-1.58-2.5-2.8-3.95-3.98
			c-0.75-0.61-1.5-1.23-2.26-1.84C53.1,5.64,52.76,5.38,52.37,5.42z"/>
		<path class="st6" d="M77.07,17.38c0.28-0.05,0.46-0.36,0.75-0.38c0.43-0.02,0.65,0.64,1.08,0.63c0.22,0,0.4-0.2,0.46-0.41
			c0.05-0.21,0.01-0.44-0.05-0.65c-0.09-0.32-0.22-0.65-0.47-0.86c-0.25-0.21-0.58-0.28-0.91-0.3c-0.58-0.03-1.17,0.1-1.68,0.38
			c-0.18,0.1-0.37,0.25-0.35,0.45c0,0.07,0.03,0.13,0.06,0.19c0.13,0.26,0.3,0.5,0.51,0.7C76.63,17.29,76.84,17.42,77.07,17.38z"/>
	</g>
	<path class="st4" d="M10.92,124.7c0-12.3,4.12-22.44,11.6-28.55c6.42-5.25,15-7.12,24.16-5.27c0.31,0.06,0.62-0.14,0.68-0.45
		c0.06-0.31-0.14-0.62-0.45-0.68c-9.51-1.92-18.43,0.03-25.12,5.51c-7.75,6.34-12.02,16.8-12.02,29.45
		c0,14.39,5.58,29.99,15.32,42.78c0.11,0.15,0.29,0.23,0.46,0.23c0.12,0,0.24-0.04,0.35-0.12c0.25-0.19,0.3-0.56,0.11-0.81
		C16.42,154.19,10.92,138.85,10.92,124.7z"/>
	<path class="st4" d="M83.56,83.64c-9.57,6.33-23.36,8.6-36.89,6.09c-0.32-0.06-0.62,0.15-0.68,0.46c-0.06,0.31,0.15,0.62,0.46,0.68
		c13.82,2.57,27.92,0.23,37.74-6.26c7.57-5.01,11.86-11.96,12.06-19.58c0.22-8.19-4.44-16.42-12.77-22.59
		c-5.41-4.01-12.13-7-19.43-8.65c-0.23-0.05-0.46,0.04-0.59,0.22c-0.05,0.06-0.08,0.14-0.1,0.22c-0.07,0.31,0.12,0.62,0.44,0.69
		c7.15,1.62,13.71,4.54,19,8.45c8.14,6.03,12.51,13.71,12.3,21.63C94.91,72.22,90.81,78.84,83.56,83.64z"/>
</g>
</svg>
