<?xml version="1.0" encoding="utf-8"?>
<!-- Generator: Adobe Illustrator 23.0.6, SVG Export Plug-In . SVG Version: 6.00 Build 0)  -->
<svg version="1.1" id="Слой_1" xmlns="http://www.w3.org/2000/svg" xmlns:xlink="http://www.w3.org/1999/xlink" x="0px" y="0px"
	 viewBox="0 0 153 111" style="enable-background:new 0 0 153 111;" xml:space="preserve">
<style type="text/css">
	.st0{opacity:0;fill:#F1F2FF;}
	.st1{fill:#00013D;}
	.st2{fill:#EA1944;}
	.st3{fill:#8BC8EC;}
	.st4{fill:#C7D830;}
</style>
<symbol  id="clouds" viewBox="-79.4 -8.6 154 154">
	<g>
		<rect x="-79.4" y="-8.6" class="st0" width="154" height="154"/>
		<g>
			<g>
				<path class="st1" d="M-69.1,34.5H48.4c2.4,0,4.4,2,4.4,4.4v11.9c0,0.7-0.6,1.3-1.3,1.3s-1.3-0.6-1.3-1.3V39c0-1-0.8-1.8-1.8-1.8
					H-69.1c-1,0-1.8,0.8-1.8,1.8v76.5c0,1,0.8,1.8,1.8,1.8H48.4c1,0,1.8-0.8,1.8-1.8v-9.6c0-0.7,0.6-1.3,1.3-1.3s1.3,0.6,1.3,1.3
					v9.6c0,2.4-2,4.4-4.4,4.4H-69.1c-2.4,0-4.4-2-4.4-4.4V39C-73.6,36.5-71.6,34.5-69.1,34.5z"/>
				<path class="st2" d="M44.2,101.9c0.7,0,1.3,0.6,1.3,1.3v7.6c0,0.7-0.6,1.3-1.3,1.3H-64.9c-0.7,0-1.3-0.6-1.3-1.3V43
					c0-0.7,0.6-1.3,1.3-1.3H44.2c0.7,0,1.3,0.6,1.3,1.3v6.9c0,0.7-0.6,1.3-1.3,1.3s-1.3-0.6-1.3-1.3v-5.7H-63.6v65.3H42.9v-6.4
					C42.9,102.5,43.5,101.9,44.2,101.9z"/>
				<path class="st3" d="M51.6,100.1c-12.7,0-23-10.3-23-23c0-12.7,10.3-23,23-23s23,10.3,23,23C74.6,89.9,64.2,100.1,51.6,100.1z
					 M51.6,56.8c-11.3,0-20.4,9.1-20.4,20.4s9.2,20.4,20.4,20.4S72,88.4,72,77.2S62.8,56.8,51.6,56.8z"/>
				<path class="st1" d="M53.4,29.4H-3.7c-0.7,0-1.2-0.5-1.3-1.2c-0.2-2.8-2.6-5.1-5.4-5.1s-5.2,2.2-5.4,5.1c0,0.7-0.6,1.2-1.3,1.2
					h-57.1c-3,0-5.4-2-5.4-4.3v-6.9c0-2.4,2.4-4.3,5.4-4.3H53.4c3,0,5.4,2,5.4,4.3v6.9C58.8,27.5,56.3,29.4,53.4,29.4z M56.2,18.2
					c0-0.9-1.3-1.8-2.8-1.8H-74.1c-1.5,0-2.8,0.8-2.8,1.8v6.9c0,0.9,1.3,1.8,2.8,1.8h56c0.8-3.6,4-6.3,7.8-6.3s7,2.7,7.8,6.3h56
					c1.5,0,2.8-0.8,2.8-1.8V18.2z"/>
				<path class="st1" d="M49.8,22.9H26.6c-0.7,0-1.3-0.6-1.3-1.3c0-0.7,0.6-1.3,1.3-1.3h23.3c0.7,0,1.3,0.6,1.3,1.3
					C51.1,22.3,50.5,22.9,49.8,22.9z"/>
				<path class="st1" d="M-65.8,22.9h-6.5c-0.7,0-1.3-0.6-1.3-1.3c0-0.7,0.6-1.3,1.3-1.3h6.5c0.7,0,1.3,0.6,1.3,1.3
					C-64.5,22.3-65,22.9-65.8,22.9z"/>
			</g>
			<g>
				<path class="st3" d="M61,87.4c-0.6,0.4-1.4,0.2-1.8-0.5l-9.5-16.3l-5.8,10.6c-0.3,0.6-1.1,0.9-1.7,0.5c-0.6-0.3-0.9-1.1-0.5-1.7
					l6.8-12.4c0.2-0.4,0.7-0.7,1.1-0.7c0.8,0,1.2,0.3,1.4,0.7l10.5,18C61.8,86.2,61.6,87,61,87.4z"/>
				<path class="st1" d="M-31.6,60.9c-0.4,0-0.8-0.1-1.1-0.3c-0.3-0.2-0.6-0.5-0.9-0.8V64h-2V53.2h2v5.5c0.1,0.2,0.3,0.3,0.6,0.4
					c0.2,0.1,0.5,0.1,0.8,0.1c0.4,0,0.7-0.1,0.8-0.4c0.2-0.2,0.3-0.7,0.3-1.2v-4.5h2v4.5c0,1.1-0.2,1.9-0.7,2.4
					C-30.2,60.6-30.8,60.9-31.6,60.9z"/>
				<path class="st1" d="M-23.5,54.7c-0.1,0-0.2,0-0.3,0c-0.2,0-0.4,0.1-0.5,0.2c-0.1,0.1-0.2,0.3-0.2,0.6v3.8h1.3v1.4h-1.3v1.8h-2
					v-1.8h-1.1v-1.4h1.1v-3.8c0-0.8,0.2-1.4,0.6-1.8c0.4-0.4,0.9-0.6,1.6-0.6c0.2,0,0.4,0,0.6,0.1c0.2,0,0.4,0.1,0.6,0.2l-0.2,1.5
					C-23.3,54.7-23.4,54.7-23.5,54.7z"/>
				<path class="st1" d="M-17.8,54.7c-0.1,0-0.2,0-0.3,0c-0.2,0-0.4,0.1-0.5,0.2c-0.1,0.1-0.2,0.3-0.2,0.6v3.8h1.3v1.4h-1.3v1.8h-2
					v-1.8h-1.1v-1.4h1.1v-3.8c0-0.8,0.2-1.4,0.6-1.8c0.4-0.4,0.9-0.6,1.6-0.6c0.2,0,0.4,0,0.6,0.1c0.2,0,0.4,0.1,0.6,0.2l-0.2,1.5
					C-17.6,54.7-17.7,54.7-17.8,54.7z"/>
				<path class="st1" d="M-11.6,60.9c-0.4,0-0.8-0.1-1.1-0.3c-0.3-0.2-0.6-0.4-0.8-0.8l-0.1,0.9h-1.8V50.3h2v3.6
					c0.2-0.3,0.5-0.5,0.8-0.6c0.3-0.1,0.7-0.2,1.1-0.2c0.9,0,1.6,0.3,2.2,1c0.5,0.7,0.8,1.6,0.8,2.7v0.1c0,1.2-0.3,2.1-0.8,2.9
					C-10,60.5-10.7,60.9-11.6,60.9z M-10.7,56.8c0-0.7-0.1-1.2-0.3-1.6c-0.2-0.4-0.6-0.6-1.1-0.6c-0.3,0-0.6,0.1-0.8,0.2
					c-0.2,0.1-0.4,0.3-0.5,0.5v3.3c0.1,0.2,0.3,0.4,0.5,0.5c0.2,0.1,0.5,0.2,0.8,0.2c0.5,0,0.8-0.2,1.1-0.7c0.2-0.4,0.4-1,0.4-1.7
					V56.8z"/>
				<path class="st1" d="M-1.4,56.8c-0.5,0.4-1.1,0.6-2.1,0.8c-0.6,0.1-1,0.2-1.2,0.4c-0.2,0.1-0.3,0.3-0.3,0.6
					c0,0.2,0.1,0.4,0.3,0.6c0.2,0.2,0.4,0.2,0.8,0.2c0.4,0,0.6-0.1,0.8-0.3c0.2-0.2,0.3-0.4,0.3-0.7h2l0,0c0,0.7-0.3,1.2-0.8,1.7
					s-1.3,0.7-2.3,0.7c-0.9,0-1.6-0.2-2.2-0.7c-0.5-0.5-0.8-1-0.8-1.6c0-0.6,0.2-1.1,0.7-1.5c0.5-0.4,1.1-0.6,2-0.8
					c0.6-0.1,1-0.3,1.2-0.4c0.2-0.2,0.3-0.4,0.3-0.6c0-0.3-0.1-0.5-0.3-0.6s-0.5-0.2-0.9-0.2c-0.4,0-0.7,0.1-1,0.3
					c-0.3,0.2-0.4,0.5-0.4,0.9H-7l0,0c0-0.6,0.2-1.2,0.8-1.7c0.6-0.5,1.4-0.8,2.4-0.8c1,0,1.7,0.2,2.3,0.6c0.6,0.4,0.9,1,0.9,1.7
					C-0.7,56-0.9,56.5-1.4,56.8z"/>
				<rect x="1.6" y="53.2" class="st1" width="2" height="1.8"/>
				<rect x="1.6" y="59.3" class="st1" width="2" height="1.8"/>
				<polygon class="st1" points="5.2,52.3 7.2,52.3 10.9,63.3 8.9,63.3 				"/>
				<polygon class="st1" points="11.7,52.3 13.7,52.3 17.4,63.3 15.4,63.3 				"/>
				<path class="st4" d="M9.1,66.9c0,0.1,0,0.1,0,0.2V79c0,2.9-2.4,5.3-5.3,5.3H1.3v12.4c0,5.1-4.2,9.3-9.3,9.3h-2.2
					c-5.1,0-9.3-4.2-9.3-9.3V84.3h-2.5c-2.9,0-5.3-2.4-5.3-5.3V67.1c0-0.1,0-0.1,0-0.2H9.1z M-7.6,74.5v-3.7c0-0.8-0.7-1.5-1.5-1.5
					c-0.8,0-1.5,0.7-1.5,1.5v3.7c-1.1,0.6-1.9,1.7-1.9,3c0,1.9,1.5,3.4,3.4,3.4c1.9,0,3.4-1.5,3.4-3.4C-5.7,76.2-6.5,75.1-7.6,74.5z
					 M-5.6,84.3h-7.1v12c0,1.4,1.2,2.6,2.6,2.6h1.9c1.4,0,2.6-1.2,2.6-2.6V84.3z M-17,96.6c0,3.7,3,6.7,6.7,6.7H-8
					c3.7,0,6.7-3,6.7-6.7V84.3H-3v12c0,2.8-2.3,5.1-5.1,5.1h-1.9c-2.8,0-5.1-2.3-5.1-5.1v-12H-17V96.6z"/>
			</g>
		</g>
	</g>
</symbol>
<use xlink:href="#clouds"  width="154" height="154" id="XMLID_15_" x="-79.4" y="-8.6" transform="matrix(0.9823 0 0 -0.9823 78.3442 121.456)" style="overflow:visible;"/>
</svg>
