<?xml version="1.0" encoding="utf-8"?>
<!-- Generator: Adobe Illustrator 23.0.6, SVG Export Plug-In . SVG Version: 6.00 Build 0)  -->
<svg version="1.1" id="Слой_1" xmlns="http://www.w3.org/2000/svg" xmlns:xlink="http://www.w3.org/1999/xlink" x="0px" y="0px"
	 viewBox="0 0 109 42" style="enable-background:new 0 0 109 42;" xml:space="preserve">
<style type="text/css">
	.st0{fill:#00053E;}
	.st1{fill:#EC1944;}
</style>
<symbol  id="logo_3" viewBox="-54.4 -8.2 106.6 40">
	<g>
		<path class="st0" d="M-4.3-1.1c-3.3,0-6,2.7-6,6v11.6h2.4l0.4-2.6h3.2l0.2-1.6l-2.8-2.1l0-5.4c0-1.6,1.3-2.9,2.9-2.9h0.2v-3.2
			H-4.3z"/>
		<polygon class="st1" points="-38.8,26.1 -46.6,31.8 -54.4,26.1 -54.4,21.6 -46.6,27.2 -38.8,21.6 		"/>
		<path class="st0" d="M52.2,13.9h-3.4l0-10.9c-0.7-0.6-1.5-1-2.4-1c-2,0-3.6,1.6-3.6,3.6v8.3h-3.4l0-7.5V5c0-3.5,2.9-6.4,6.4-6.4
			c1.1,0,2.1,0.3,3,0.8v-0.1c0-2.4-1.9-4.3-4.3-4.3h-1.2v-3.2l1.5,0c4.2,0,7.5,3.4,7.5,7.5L52.2,13.9z"/>
		<path class="st0" d="M20.8,3.1c-0.6,0-1.2-0.2-1.6-0.7c-0.4-0.4-0.6-1-0.6-1.6c0-0.6,0.2-1.2,0.6-1.6c0.4-0.4,1-0.6,1.6-0.6
			c0.6,0,1.2,0.2,1.6,0.6c0.4,0.4,0.6,1,0.6,1.6c0,0.6-0.2,1.2-0.6,1.6C21.9,2.9,21.4,3.1,20.8,3.1z"/>
		<path class="st0" d="M-16.6,5.3c0.9,0,1.6-0.7,1.6-1.6c0-0.9-0.7-1.6-1.6-1.6h-5.3v-3.2h5.5c2.7,0,4.8,2.2,4.8,4.8
			s-2.2,4.8-4.8,4.8h-1.7c-0.6,0-1.1,0.5-1.1,1.1s0.5,1.1,1.1,1.1h4.5v3.2h-4.7c-2.4,0-4.3-1.9-4.3-4.3s1.9-4.3,4.3-4.3H-16.6z"/>
		<path class="st0" d="M-31.1,14.1c-4.3,0-7.7-3.5-7.7-7.7c0-4.3,3.5-7.7,7.7-7.7c4.3,0,7.7,3.5,7.7,7.7
			C-23.3,10.7-26.8,14.1-31.1,14.1z M-31.1,2.1c-2.4,0-4.3,1.9-4.3,4.3c0,2.4,1.9,4.3,4.3,4.3c2.4,0,4.3-1.9,4.3-4.3
			C-26.7,4-28.7,2.1-31.1,2.1z"/>
		<path class="st0" d="M17.7,13.9c-3.3,0-6-2.7-6-6v-9h3.4l0,9c0,1.6,1.3,2.9,2.9,2.9h0.3v3.2H17.7z"/>
		<path class="st0" d="M10.2,11.3c-1.4,1.8-3.6,2.9-6,2.9c-4.3,0-7.7-3.5-7.7-7.7c0-4.3,3.5-7.7,7.7-7.7c2.1,0,3.9,0.8,5.3,2.1
			L7.1,3.2C6.3,2.5,5.3,2.1,4.2,2.1C1.8,2.1-0.2,4-0.2,6.4c0,2.4,1.9,4.3,4.3,4.3c1,0,1.9-0.3,2.6-0.9L3,7V3.1l7.2,5.3V11.3z"/>
		<path class="st0" d="M-40.2,7.7c0,3.5-2.9,6.4-6.4,6.4c-1.1,0-2.1-0.3-2.9-0.7l-1.1,6.7H-53V-1.1h3.4V9.8c0.7,0.6,1.5,1,2.4,1
			c2,0,3.6-1.6,3.6-3.6v-8.3h3.4L-40.2,7.7z"/>
		<path class="st0" d="M35.9,11.9c-1.5,1.5-3.4,2.2-5.4,2.3c-1.1,0-2.1-0.2-2.9-0.7l-1.1,6.7h-2.4V1.9c0.2-0.4,0.5-0.7,0.8-1
			c3-3,7.9-3,11,0C38.9,3.9,38.9,8.9,35.9,11.9z M33.5,3.3c-1.6-1.6-4.3-1.7-6-0.1v6.4c1.7,1.5,4.3,1.5,6-0.1
			C35.2,7.8,35.2,5,33.5,3.3z"/>
	</g>
</symbol>
<use xlink:href="#logo_3"  width="106.6" height="40" id="XMLID_28_" x="-54.4" y="-8.2" transform="matrix(1 0 0 -1 55.2647 32.9186)" style="overflow:visible;"/>
</svg>
