<svg width="50" height="50" viewBox="0 0 50 50" fill="none" xmlns="http://www.w3.org/2000/svg">
<path d="M25 3C16.7266 3 10 9.72656 10 18C10 23.0586 11.9297 26.0664 13.75 28.1562C14.6602 29.2031 15.5391 30.0469 16.125 30.8125C16.7109 31.5781 17 32.1953 17 33V43C17 44.6445 18.3555 46 20 46H21.1562C21.6016 47.7188 23.1484 49 25 49C26.8516 49 28.3984 47.7188 28.8438 46H30C31.6445 46 33 44.6445 33 43V33C33 31.8711 33.332 31.0898 33.9062 30.2812C34.4805 29.4727 35.3438 28.668 36.25 27.6875C38.0586 25.7227 40 22.9648 40 18C40 9.72656 33.2734 3 25 3ZM25 5C32.1914 5 38 10.8086 38 18C38 22.4688 36.4414 24.5117 34.75 26.3438C33.9062 27.2617 33.0195 28.0898 32.2812 29.125C31.543 30.1602 31 31.4375 31 33V38H19V33C19 31.6523 18.4141 30.5391 17.6875 29.5938C16.9609 28.6484 16.0898 27.8047 15.25 26.8438C13.5703 24.918 12 22.5742 12 18C12 10.8086 17.8086 5 25 5ZM20.9062 17.9688C20.8633 17.9766 20.8203 17.9883 20.7812 18C20.4062 18.0664 20.1055 18.3398 20 18.7031C19.8945 19.0703 20.0039 19.4609 20.2812 19.7188L24 23.4375V36H26V23.4375L29.7188 19.7188C30.1172 19.3203 30.1172 18.6797 29.7188 18.2812C29.3203 17.8828 28.6797 17.8828 28.2812 18.2812L25 21.5625L21.7188 18.2812C21.5117 18.0586 21.2109 17.9453 20.9062 17.9688ZM19 40H31V43C31 43.5547 30.5547 44 30 44H22.1875C22.0547 43.9727 21.9141 43.9727 21.7812 44H20C19.4453 44 19 43.5547 19 43V40ZM23.2812 46H26.7188C26.375 46.5977 25.7461 47 25 47C24.2539 47 23.625 46.5977 23.2812 46Z" fill="white"/>
</svg>
