<svg width="50" height="50" viewBox="0 0 50 50" fill="none" xmlns="http://www.w3.org/2000/svg">
<g clip-path="url(#clip0)">
<path d="M19 5C17.3555 5 16 6.35547 16 8V11H3C1.35547 11 3.72529e-08 12.3555 3.72529e-08 14V22.6875C-0.0585938 22.8828 -0.0585938 23.0859 3.72529e-08 23.2812V42C3.72529e-08 43.6445 1.35547 45 3 45H47C48.6445 45 50 43.6445 50 42V23.1875C50.0273 23.0547 50.0273 22.9141 50 22.7812V14C50 12.3555 48.6445 11 47 11H34V8C34 6.35547 32.6445 5 31 5H19ZM19 7H31C31.5625 7 32 7.4375 32 8V11H18V8C18 7.4375 18.4375 7 19 7ZM3 13H47C47.5625 13 48 13.4375 48 14V22H41C41 20.9062 40.0938 20 39 20H34C32.9062 20 32 20.9062 32 22H18C18 20.9062 17.0938 20 16 20H11C9.90625 20 9 20.9062 9 22H2V14C2 13.4375 2.4375 13 3 13ZM11 22H16V22.6875C15.9414 22.8828 15.9414 23.0859 16 23.2812V24H11V23.1875C11.0273 23.0547 11.0273 22.9141 11 22.7812V22ZM34 22H39V22.6875C38.9414 22.8828 38.9414 23.0859 39 23.2812V24H34V23.1875C34.0273 23.0547 34.0273 22.9141 34 22.7812V22ZM2 24H9C9 25.0938 9.90625 26 11 26H16C17.0938 26 18 25.0938 18 24H32C32 25.0938 32.9062 26 34 26H39C40.0938 26 41 25.0938 41 24H48V42C48 42.5625 47.5625 43 47 43H3C2.4375 43 2 42.5625 2 42V24Z" fill="white"/>
</g>
<defs>
<clipPath id="clip0">
<rect width="50" height="50" fill="white"/>
</clipPath>
</defs>
</svg>
