<svg width="50" height="50" viewBox="0 0 50 50" fill="none" xmlns="http://www.w3.org/2000/svg">
<path d="M1.71881 2.78125C1.25397 2.88672 0.925841 3.30469 0.93756 3.78125V39.4688C0.93756 43.7148 3.14459 46.1094 5.31256 47.1875C7.48053 48.2656 9.62506 48.2188 9.62506 48.2188H40.3751V48.125C40.8555 48.1797 41.3751 48.2188 41.3751 48.2188C41.3751 48.2188 43.2969 48.2305 45.2188 47.125C47.0938 46.0469 48.9415 43.7656 49.0313 39.8125C49.043 39.793 49.0547 39.7695 49.0626 39.75C49.0626 39.7266 49.0626 39.7109 49.0626 39.6875C49.0665 39.6367 49.0665 39.582 49.0626 39.5312V14.4375C49.0626 14.4258 49.0626 14.418 49.0626 14.4062C49.0626 14.4062 49.0782 13.2344 48.4688 12.0312C47.8594 10.8281 46.4415 9.53125 44.2188 9.53125V9.5H34.7501V11.5H40.3126C40.1915 11.6719 40.0899 11.8281 40.0001 12C39.3907 13.1914 39.3751 14.375 39.3751 14.375V38.625C39.3712 38.9844 39.5587 39.3203 39.8712 39.5039C40.1837 39.6836 40.5665 39.6836 40.879 39.5039C41.1915 39.3203 41.379 38.9844 41.3751 38.625V14.375C41.3751 14.3477 41.4141 13.625 41.7813 12.9062C42.1563 12.1758 42.6837 11.5312 44.2188 11.5312C45.7501 11.5312 46.2774 12.1914 46.6563 12.9375C47.0274 13.6719 47.0938 14.4102 47.0938 14.4375H47.0626V39.5312C47.0626 43.0898 45.6407 44.5898 44.2188 45.4062C42.7969 46.2227 41.3751 46.2188 41.3751 46.2188C41.3751 46.2188 39.6837 46.1953 38.0001 45.3438C36.3165 44.4922 34.6876 42.9961 34.6876 39.4688V3.78125C34.6876 3.23047 34.2383 2.78125 33.6876 2.78125H1.93756C1.86334 2.77344 1.79303 2.77344 1.71881 2.78125ZM2.93756 4.78125H32.6876V39.4688C32.6876 42.7578 34.0821 44.9102 35.7188 46.2188H9.62506C9.61334 46.2188 9.60553 46.2188 9.59381 46.2188C9.59381 46.2188 9.16412 46.2227 8.53131 46.125C8.2149 46.0742 7.86334 45.9922 7.46881 45.875C7.07428 45.7578 6.63678 45.6133 6.21881 45.4062C6.00787 45.3008 5.79694 45.1914 5.59381 45.0625C4.16412 44.1641 2.93756 42.6133 2.93756 39.4688V4.78125ZM6.93756 11C6.38678 11.0781 6.00006 11.5898 6.07819 12.1406C6.15631 12.6914 6.66803 13.0781 7.21881 13H26.9376C27.2969 13.0039 27.6329 12.8164 27.8165 12.5039C27.9962 12.1914 27.9962 11.8086 27.8165 11.4961C27.6329 11.1836 27.2969 10.9961 26.9376 11H7.21881C7.18756 11 7.15631 11 7.12506 11C7.09381 11 7.06256 11 7.03131 11C7.00006 11 6.96881 11 6.93756 11ZM6.93756 15C6.38678 15.0781 6.00006 15.5898 6.07819 16.1406C6.15631 16.6914 6.66803 17.0781 7.21881 17H26.9376C27.2969 17.0039 27.6329 16.8164 27.8165 16.5039C27.9962 16.1914 27.9962 15.8086 27.8165 15.4961C27.6329 15.1836 27.2969 14.9961 26.9376 15H7.21881C7.18756 15 7.15631 15 7.12506 15C7.09381 15 7.06256 15 7.03131 15C7.00006 15 6.96881 15 6.93756 15ZM7.40631 23C6.85553 23.0781 6.46881 23.5898 6.54694 24.1406C6.62506 24.6914 7.13678 25.0781 7.68756 25H14.4688C14.8282 25.0039 15.1641 24.8164 15.3477 24.5039C15.5274 24.1914 15.5274 23.8086 15.3477 23.4961C15.1641 23.1836 14.8282 22.9961 14.4688 23H7.68756C7.65631 23 7.62506 23 7.59381 23C7.56256 23 7.53131 23 7.50006 23C7.46881 23 7.43756 23 7.40631 23ZM18.9376 23C18.3868 23.0781 18.0001 23.5898 18.0782 24.1406C18.1563 24.6914 18.668 25.0781 19.2188 25H26.9376C27.2969 25.0039 27.6329 24.8164 27.8165 24.5039C27.9962 24.1914 27.9962 23.8086 27.8165 23.4961C27.6329 23.1836 27.2969 22.9961 26.9376 23H19.2188C19.1876 23 19.1563 23 19.1251 23C19.0938 23 19.0626 23 19.0313 23C19.0001 23 18.9688 23 18.9376 23ZM7.40631 27C6.85553 27.0781 6.46881 27.5898 6.54694 28.1406C6.62506 28.6914 7.13678 29.0781 7.68756 29H14.4688C14.8282 29.0039 15.1641 28.8164 15.3477 28.5039C15.5274 28.1914 15.5274 27.8086 15.3477 27.4961C15.1641 27.1836 14.8282 26.9961 14.4688 27H7.68756C7.65631 27 7.62506 27 7.59381 27C7.56256 27 7.53131 27 7.50006 27C7.46881 27 7.43756 27 7.40631 27ZM18.9376 27C18.3868 27.0781 18.0001 27.5898 18.0782 28.1406C18.1563 28.6914 18.668 29.0781 19.2188 29H26.9376C27.2969 29.0039 27.6329 28.8164 27.8165 28.5039C27.9962 28.1914 27.9962 27.8086 27.8165 27.4961C27.6329 27.1836 27.2969 26.9961 26.9376 27H19.2188C19.1876 27 19.1563 27 19.1251 27C19.0938 27 19.0626 27 19.0313 27C19.0001 27 18.9688 27 18.9376 27ZM18.9376 30.7812C18.3868 30.8594 18.0001 31.3711 18.0782 31.9219C18.1563 32.4727 18.668 32.8594 19.2188 32.7812H26.9376C27.2969 32.7852 27.6329 32.5977 27.8165 32.2852C27.9962 31.9727 27.9962 31.5898 27.8165 31.2773C27.6329 30.9648 27.2969 30.7773 26.9376 30.7812H19.2188C19.1563 30.7734 19.0938 30.7734 19.0313 30.7812C19.0001 30.7812 18.9688 30.7812 18.9376 30.7812ZM7.40631 31C6.85553 31.0781 6.46881 31.5898 6.54694 32.1406C6.62506 32.6914 7.13678 33.0781 7.68756 33H14.4688C14.8282 33.0039 15.1641 32.8164 15.3477 32.5039C15.5274 32.1914 15.5274 31.8086 15.3477 31.4961C15.1641 31.1836 14.8282 30.9961 14.4688 31H7.68756C7.65631 31 7.62506 31 7.59381 31C7.56256 31 7.53131 31 7.50006 31C7.46881 31 7.43756 31 7.40631 31ZM18.9376 34.7812C18.3868 34.8594 18.0001 35.3711 18.0782 35.9219C18.1563 36.4727 18.668 36.8594 19.2188 36.7812H26.9376C27.2969 36.7852 27.6329 36.5977 27.8165 36.2852C27.9962 35.9727 27.9962 35.5898 27.8165 35.2773C27.6329 34.9648 27.2969 34.7773 26.9376 34.7812H19.2188C19.1563 34.7734 19.0938 34.7734 19.0313 34.7812C19.0001 34.7812 18.9688 34.7812 18.9376 34.7812ZM7.40631 35C6.85553 35.0781 6.46881 35.5898 6.54694 36.1406C6.62506 36.6914 7.13678 37.0781 7.68756 37H14.4688C14.8282 37.0039 15.1641 36.8164 15.3477 36.5039C15.5274 36.1914 15.5274 35.8086 15.3477 35.4961C15.1641 35.1836 14.8282 34.9961 14.4688 35H7.68756C7.65631 35 7.62506 35 7.59381 35C7.56256 35 7.53131 35 7.50006 35C7.46881 35 7.43756 35 7.40631 35ZM18.9376 38.5312C18.3868 38.6094 18.0001 39.1211 18.0782 39.6719C18.1563 40.2227 18.668 40.6094 19.2188 40.5312H26.9376C27.2969 40.5352 27.6329 40.3477 27.8165 40.0352C27.9962 39.7227 27.9962 39.3398 27.8165 39.0273C27.6329 38.7148 27.2969 38.5273 26.9376 38.5312H19.2188C19.1876 38.5312 19.1563 38.5312 19.1251 38.5312C19.0938 38.5312 19.0626 38.5312 19.0313 38.5312C19.0001 38.5312 18.9688 38.5312 18.9376 38.5312ZM7.40631 39C6.85553 39.0781 6.46881 39.5898 6.54694 40.1406C6.62506 40.6914 7.13678 41.0781 7.68756 41H14.4688C14.8282 41.0039 15.1641 40.8164 15.3477 40.5039C15.5274 40.1914 15.5274 39.8086 15.3477 39.4961C15.1641 39.1836 14.8282 38.9961 14.4688 39H7.68756C7.65631 39 7.62506 39 7.59381 39C7.56256 39 7.53131 39 7.50006 39C7.46881 39 7.43756 39 7.40631 39Z" fill="white"/>
</svg>
