<svg width="50" height="50" viewBox="0 0 50 50" fill="none" xmlns="http://www.w3.org/2000/svg">
<path d="M17 3C16.0625 3 15.1172 3.3125 14.3438 3.96875C13.5703 4.625 13 5.67578 13 6.90625V28.4375C12.5586 28.5977 12.1562 28.6445 11.3438 29.3438C10.168 30.3594 9 32.1836 9 34.9062C9 36.8789 9.78516 38.6836 10.0938 39.4062C10.0938 39.418 10.0938 39.4258 10.0938 39.4375L12.9062 45.0312C12.9102 45.0391 12.9023 45.0547 12.9062 45.0625C14.3828 48.1055 17.5391 50 20.9062 50H30C34.9453 50 39 45.9453 39 41V25C39 24.1797 38.8711 23.0508 38.3125 22C37.7539 20.9492 36.5977 20 35 20C33.9062 20 33.0938 20.375 32.4375 20.875C32.3281 20.5742 32.2734 20.2383 32.125 19.9688C31.5039 18.8477 30.3672 18 29 18C27.8828 18 27.0078 18.4062 26.3438 18.9688C25.6797 17.8711 24.5586 17 23 17C22.2188 17 21.5742 17.2461 21 17.5938V7C21 5.73438 20.4609 4.67578 19.6875 4C18.9141 3.32422 17.9375 3 17 3ZM17 5C17.4609 5 18 5.17578 18.375 5.5C18.75 5.82422 19 6.26562 19 7V23H21V21C21 20.125 21.6602 19 23 19C24.3398 19 25 20.125 25 21V22C25.0078 22.5469 25.4531 22.9844 26 22.9844C26.5469 22.9844 26.9922 22.5469 27 22C27 21.4648 27.1328 20.9336 27.4062 20.5938C27.6797 20.2539 28.082 20 29 20C29.6328 20 29.9961 20.2578 30.375 20.9375C30.7539 21.6172 31 22.7188 31 24H33C33 23.418 33.1055 22.9102 33.3438 22.5938C33.582 22.2773 33.9648 22 35 22C35.9023 22 36.2461 22.3398 36.5625 22.9375C36.8789 23.5352 37 24.418 37 25V41C37 44.8555 33.8555 48 30 48H20.9062C18.2852 48 15.8164 46.5 14.6875 44.1562L11.9062 38.5938C11.9023 38.5859 11.9102 38.5703 11.9062 38.5625C11.6133 37.875 11 36.3203 11 34.9062C11 32.7266 11.832 31.5859 12.6562 30.875C13.4805 30.1641 14.25 29.9688 14.25 29.9688C14.6914 29.8555 15 29.457 15 29V6.90625C15 6.23828 15.25 5.82031 15.625 5.5C16 5.17969 16.5391 5 17 5ZM21.9062 29.9688C21.8633 29.9766 21.8203 29.9883 21.7812 30C21.3164 30.1055 20.9883 30.5234 21 31V40C20.9961 40.3594 21.1836 40.6953 21.4961 40.8789C21.8086 41.0586 22.1914 41.0586 22.5039 40.8789C22.8164 40.6953 23.0039 40.3594 23 40V31C23.0117 30.7109 22.8945 30.4336 22.6875 30.2383C22.4766 30.0391 22.1914 29.9414 21.9062 29.9688ZM26.9062 29.9688C26.8633 29.9766 26.8203 29.9883 26.7812 30C26.3164 30.1055 25.9883 30.5234 26 31V40C25.9961 40.3594 26.1836 40.6953 26.4961 40.8789C26.8086 41.0586 27.1914 41.0586 27.5039 40.8789C27.8164 40.6953 28.0039 40.3594 28 40V31C28.0117 30.7109 27.8945 30.4336 27.6875 30.2383C27.4766 30.0391 27.1914 29.9414 26.9062 29.9688ZM31.9062 29.9688C31.8633 29.9766 31.8203 29.9883 31.7812 30C31.3164 30.1055 30.9883 30.5234 31 31V40C30.9961 40.3594 31.1836 40.6953 31.4961 40.8789C31.8086 41.0586 32.1914 41.0586 32.5039 40.8789C32.8164 40.6953 33.0039 40.3594 33 40V31C33.0117 30.7109 32.8945 30.4336 32.6875 30.2383C32.4766 30.0391 32.1914 29.9414 31.9062 29.9688Z" fill="white"/>
</svg>
