<svg width="50" height="50" viewBox="0 0 50 50" fill="none" xmlns="http://www.w3.org/2000/svg">
<path d="M24.875 3.3125C20.1836 3.41797 17.2148 5.31641 15.9375 8.25C14.7227 11.043 14.9766 14.5625 15.8438 18.2188C15.3789 18.7656 14.9961 19.5352 15.0938 20.6875V20.75C15.2617 21.9688 15.6289 22.8281 16.0938 23.4375C16.3164 23.7266 16.6328 23.7422 16.9062 23.9062C17.1484 25.2695 17.6914 26.5703 18.3125 27.5938C18.3438 27.7422 18.4062 27.8789 18.5 28C18.5 28 18.6016 28.1289 18.625 28.1562C18.9375 28.625 19.0938 29.2773 19.0938 30C19.0938 30.7695 19.082 31.4844 19 32.2812C18.6992 33.0391 17.9492 33.6445 16.75 34.25C15.4961 34.8828 13.8555 35.4648 12.1875 36.1875C10.5195 36.9102 8.82812 37.7773 7.46875 39.1562C6.10938 40.5352 5.13672 42.4453 5 44.9375L4.9375 46H45.0625L45 44.9375C44.8633 42.4453 43.9141 40.5391 42.5625 39.1562C41.2109 37.7734 39.5117 36.9102 37.8438 36.1875C36.1758 35.4648 34.5234 34.8867 33.25 34.25C32.0156 33.6328 31.2422 33.0039 30.9062 32.2188C30.8281 31.2734 30.8125 30.5273 30.8125 29.6875C30.8125 29.1523 30.9961 28.668 31.3125 28.1875C31.3203 28.1758 31.3359 28.168 31.3438 28.1562C31.3477 28.1484 31.4062 28.0938 31.4062 28.0938C31.5312 27.9648 31.6172 27.8008 31.6562 27.625C32.2617 26.5859 32.7656 25.2656 33 23.9375C33.3125 23.7734 33.6641 23.7539 33.9062 23.4375C34.3867 22.8086 34.668 21.9141 34.7812 20.6875C34.8711 19.6289 34.5664 18.8594 34.0938 18.2812C34.6133 16.6797 35.2305 14.1172 35.0312 11.5C34.9219 10.0625 34.543 8.62891 33.6875 7.4375C32.9141 6.35938 31.6641 5.62109 30.0938 5.28125C29.0352 3.86719 27.1133 3.3125 24.9062 3.3125H24.875ZM24.9062 5.3125C24.918 5.3125 24.9258 5.3125 24.9375 5.3125C26.9336 5.32031 28.2109 5.88281 28.625 6.59375L28.875 7.03125L29.375 7.09375C30.75 7.28516 31.5039 7.81641 32.0625 8.59375C32.6211 9.37109 32.9414 10.457 33.0312 11.6562C33.2148 14.0586 32.5195 16.875 32.0625 18.1562L31.75 19L32.5312 19.4062C32.5234 19.4336 32.8516 19.7656 32.8125 20.5C32.8125 20.5156 32.8125 20.5156 32.8125 20.5312C32.7188 21.4727 32.4766 22.0039 32.3125 22.2188C32.1445 22.4375 32.0586 22.4062 32.0938 22.4062H31.2188L31.0938 23.2812C30.9219 24.5781 30.2617 26.2109 29.6875 27.0312H29.6562C29.5977 27.1172 29.5547 27.2188 29.5 27.3125C29.2383 27.6172 28.8438 28.0195 28.2812 28.5C27.3477 29.2969 26.1094 30 25 30C23.8984 30 22.6484 29.2617 21.6875 28.4375C20.8555 27.7227 20.3594 27.1094 20.2188 26.9375C20.2148 26.9297 20.2227 26.9141 20.2188 26.9062C19.6289 26.0547 18.9531 24.5625 18.7812 23.2812L18.6875 22.4062H17.875C17.8398 22.3906 17.7461 22.3398 17.6562 22.2188C17.4805 21.9883 17.2305 21.4492 17.0938 20.5312C17.0938 20.5117 17.0938 20.5195 17.0938 20.5C17.0898 20.4844 17.0977 20.4844 17.0938 20.4688C17.0781 19.7109 17.5469 19.2891 17.4688 19.3438L18.0312 18.9375L17.875 18.25C16.9531 14.6055 16.8086 11.3047 17.7812 9.0625C18.7539 6.82812 20.7227 5.41406 24.9062 5.3125ZM21.0938 30.5312C22.1484 31.3086 23.4688 32 25 32C26.5 32 27.7852 31.3438 28.8125 30.5938C28.8164 31.2031 28.8359 31.8281 28.9062 32.5938V32.7188L28.9688 32.8438C29.1445 33.3047 29.3945 33.6953 29.6875 34.0625C29.6758 34.1016 29.6641 34.1445 29.6562 34.1875C29.6562 34.1875 29.418 34.8438 28.7188 35.5625C28.0195 36.2812 26.9336 37 25 37C23.0742 37 21.9492 36.25 21.2188 35.5C20.4883 34.75 20.25 34.0625 20.25 34.0625C20.5391 33.6875 20.7773 33.2852 20.9375 32.8125L21 32.625C21.0859 31.8672 21.0938 31.1836 21.0938 30.5312ZM31.25 35.4375C31.6016 35.6641 31.9648 35.875 32.3438 36.0625C33.8047 36.7891 35.4609 37.3516 37.0312 38.0312C38.6016 38.7109 40.0664 39.4805 41.125 40.5625C41.9688 41.4258 42.4766 42.5742 42.75 44H7.25C7.52344 42.5742 8.02734 41.4258 8.875 40.5625C9.9375 39.4805 11.4297 38.7109 13 38.0312C14.5703 37.3516 16.2109 36.793 17.6562 36.0625C18.0156 35.8789 18.3828 35.6875 18.7188 35.4688C18.9414 35.8711 19.2852 36.3945 19.7812 36.9062C20.8008 37.957 22.5273 39 25 39C27.4648 39 29.1562 37.9688 30.1562 36.9375C30.7031 36.375 31.0352 35.8516 31.25 35.4375Z" fill="white"/>
</svg>
