<svg width="21" height="21" viewBox="0 0 21 21" fill="none" xmlns="http://www.w3.org/2000/svg">
<path d="M17.9283 3.07175C13.8325 -1.02392 7.16757 -1.02392 3.07181 3.07175C-1.02394 7.16742 -1.02394 13.8322 3.07181 17.9279C5.11969 19.9758 7.8097 21 10.4997 21C13.1897 21 15.8797 19.9758 17.9276 17.9279C22.024 13.8316 22.024 7.16742 17.9283 3.07175ZM19.2033 7.57712C16.8364 7.77606 14.6946 8.58824 12.912 9.8587C12.4064 9.11218 11.8766 8.4346 11.3362 7.82202C12.499 6.09459 13.2331 4.04413 13.4222 1.79604C14.7294 2.23266 15.9605 2.96079 16.9992 3.99948C18.0386 5.03883 18.7667 6.2699 19.2033 7.57712ZM12.1261 1.46119C11.998 3.4762 11.3979 5.30343 10.4242 6.85359C8.35072 4.79262 6.28118 3.62196 5.11115 3.0665C6.71321 1.90438 8.60416 1.31215 10.4997 1.31215C11.0447 1.31215 11.5883 1.36533 12.1261 1.46119ZM3.99628 4.00408C4.79403 4.32842 7.23651 5.45772 9.66192 7.9297C7.73616 10.2953 4.83342 11.7969 1.44349 12.0017C0.97929 9.17784 1.82431 6.17863 3.99628 4.00408ZM1.7534 13.2991C5.31929 13.0181 8.41835 11.3885 10.5325 8.88238C10.9974 9.42602 11.4524 10.0235 11.8884 10.6768C9.5155 12.7837 7.97253 15.7921 7.70005 19.2456C6.34618 18.8149 5.07176 18.071 3.99956 16.9989C2.92802 15.9274 2.18412 14.653 1.7534 13.2991ZM8.99746 19.5555C9.18786 16.4119 10.4977 13.6937 12.5745 11.7785C13.6264 13.6116 14.4963 15.8367 14.9901 18.5103C13.149 19.5418 11.0302 19.8897 8.99746 19.5555ZM16.9999 16.9995C16.7385 17.2608 16.4621 17.4972 16.1791 17.7204C15.6224 15.041 14.6972 12.8027 13.6001 10.9414C15.2593 9.75233 17.2815 9.01698 19.5382 8.87319C20.049 11.7345 19.206 14.7928 16.9999 16.9995Z" fill="white"/>
</svg>
