<svg width="15" height="21" viewBox="0 0 15 21" fill="none" xmlns="http://www.w3.org/2000/svg">
<path d="M14.3478 0H7.82609C6.47283 0 3.91304 0.822938 3.91304 3.9375V8.53125H0.652174C0.292174 8.53125 0 8.82525 0 9.1875V13.125C0 13.4872 0.292174 13.7812 0.652174 13.7812H3.91304V20.3438C3.91304 20.706 4.20522 21 4.56522 21H9.13044C9.49044 21 9.78261 20.706 9.78261 20.3438V13.7812H13.0435C13.3624 13.7812 13.6343 13.5489 13.6865 13.2333L14.3387 9.29578C14.37 9.10547 14.3172 8.91122 14.1933 8.76356C14.0693 8.61591 13.8874 8.53125 13.6957 8.53125H9.78261V6.5625C9.78261 6.03553 10.1393 5.91478 10.44 5.90625H14.3478C14.7078 5.90625 15 5.61225 15 5.25V0.65625C15 0.294 14.7078 0 14.3478 0ZM13.6957 4.59375H10.4348C9.64826 4.59375 8.47826 5.11809 8.47826 6.5625V9.1875C8.47826 9.54975 8.77044 9.84375 9.13044 9.84375H12.9254L12.4904 12.4688H9.13044C8.77044 12.4688 8.47826 12.7628 8.47826 13.125V19.6875H5.21739V13.125C5.21739 12.7628 4.92522 12.4688 4.56522 12.4688H1.30435V9.84375H4.56522C4.92522 9.84375 5.21739 9.54975 5.21739 9.1875V3.9375C5.21739 1.40897 7.56196 1.31447 7.82609 1.3125H13.6957V4.59375Z" fill="white"/>
</svg>
