<svg width="21" height="21" viewBox="0 0 21 21" fill="none" xmlns="http://www.w3.org/2000/svg"><path d="M16.406 0H4.594A4.599 4.599 0 000 4.594v11.812A4.599 4.599 0 004.594 21h11.812A4.599 4.599 0 0021 16.406V4.594A4.599 4.599 0 0016.406 0zm3.282 16.406a3.285 3.285 0 01-3.282 3.282H4.594a3.285 3.285 0 01-3.282-3.282V4.594a3.285 3.285 0 013.282-3.282h11.812a3.285 3.285 0 013.282 3.282v11.812z" fill="#fff"/><path d="M10.5 6.563A3.941 3.941 0 006.562 10.5a3.941 3.941 0 003.938 3.938 3.942 3.942 0 003.938-3.938A3.941 3.941 0 0010.5 6.562zm0 6.562A2.628 2.628 0 017.875 10.5 2.628 2.628 0 0110.5 7.875a2.628 2.628 0 012.625 2.625 2.628 2.628 0 01-2.625 2.625z" fill="#fff"/><path d="M10.5 3.938A6.57 6.57 0 003.937 10.5a6.57 6.57 0 006.563 6.563 6.57 6.57 0 006.563-6.563A6.57 6.57 0 0010.5 3.937zm0 11.812a5.256 5.256 0 01-5.25-5.25 5.256 5.256 0 015.25-5.25 5.256 5.256 0 015.25 5.25 5.256 5.256 0 01-5.25 5.25z" fill="#fff"/></svg>