<svg width="21" height="21" viewBox="0 0 21 21" fill="none" xmlns="http://www.w3.org/2000/svg">
<path d="M16.4062 0H4.59375C2.06063 0 0 2.06063 0 4.59375V16.4062C0 18.9394 2.06063 21 4.59375 21H16.4062C18.9394 21 21 18.9394 21 16.4062V4.59375C21 2.06063 18.9394 0 16.4062 0ZM19.6875 16.4062C19.6875 18.2155 18.2155 19.6875 16.4062 19.6875H4.59375C2.78447 19.6875 1.3125 18.2155 1.3125 16.4062V4.59375C1.3125 2.78447 2.78447 1.3125 4.59375 1.3125H16.4062C18.2155 1.3125 19.6875 2.78447 19.6875 4.59375V16.4062Z" fill="white"/>
<path d="M10.5 6.5625C8.32847 6.5625 6.5625 8.32847 6.5625 10.5C6.5625 12.6715 8.32847 14.4375 10.5 14.4375C12.6715 14.4375 14.4375 12.6715 14.4375 10.5C14.4375 8.32847 12.6715 6.5625 10.5 6.5625ZM10.5 13.125C9.05231 13.125 7.875 11.9477 7.875 10.5C7.875 9.05231 9.05231 7.875 10.5 7.875C11.9477 7.875 13.125 9.05231 13.125 10.5C13.125 11.9477 11.9477 13.125 10.5 13.125Z" fill="white"/>
<path d="M10.5 3.9375C6.88144 3.9375 3.9375 6.88144 3.9375 10.5C3.9375 14.1186 6.88144 17.0625 10.5 17.0625C14.1186 17.0625 17.0625 14.1186 17.0625 10.5C17.0625 6.88144 14.1186 3.9375 10.5 3.9375ZM10.5 15.75C7.60528 15.75 5.25 13.3947 5.25 10.5C5.25 7.60528 7.60528 5.25 10.5 5.25C13.3947 5.25 15.75 7.60528 15.75 10.5C15.75 13.3947 13.3947 15.75 10.5 15.75Z" fill="white"/>
</svg>
