<svg width="143" height="58" viewBox="0 0 143 58" fill="none" xmlns="http://www.w3.org/2000/svg">
<path d="M78.7539 19.9375H82.2812V37H78.7539V25.668L71.9219 37H68.4062V19.9375H71.9219V31.293L78.7539 19.9375ZM101.406 41.1953H98.1602V37H87.8711V41.1836H84.543L84.3555 34.1758H85.6445C86.3398 33.5977 86.875 32.75 87.25 31.6328C87.6328 30.5078 87.8906 29.1172 88.0234 27.4609L88.5156 19.9375H99.6953V34.1758H101.688L101.406 41.1953ZM89.6758 34.1758H96.1797V22.7852H91.8555L91.5625 27.2734C91.3281 30.2812 90.6992 32.582 89.6758 34.1758ZM113.805 29.6055H107.055V34.1758H114.977V37H103.539V19.9375H114.953V22.7852H107.055V26.8516H113.805V29.6055ZM124.926 37V30.8477H122.066L118.984 37H115.188L118.832 29.7227C117.074 28.7539 116.195 27.25 116.195 25.2109C116.195 23.5391 116.742 22.2461 117.836 21.332C118.93 20.418 120.457 19.9531 122.418 19.9375H128.453V37H124.926ZM119.711 25.4688C119.711 26.4219 119.941 27.1133 120.402 27.543C120.871 27.9727 121.57 28.1875 122.5 28.1875H124.926V22.7852H122.5C120.641 22.7852 119.711 23.6797 119.711 25.4688Z" fill="white"/>
<path d="M32.6166 12.2303C25.8622 12.2303 12.3323 6.75477 12.3323 0H12.2323C12.2323 5.4062 14.3799 10.591 18.2026 14.4138C22.0252 18.2366 27.2099 20.3844 32.6161 20.3846C35.8598 20.3846 38.9708 21.6731 41.2646 23.9668C43.5583 26.2605 44.8469 29.3714 44.8469 32.6151C44.8477 35.8588 43.5596 38.9703 41.2663 41.2643C38.9731 43.5586 35.8624 44.8477 32.6187 44.8484C29.3747 44.8489 26.2635 43.5609 23.9694 41.2676C21.6752 38.9743 20.386 35.8637 20.3853 32.62C20.3853 29.9429 19.8579 27.2922 18.8334 24.8191C17.8089 22.3459 16.3074 20.0988 14.4144 18.2059C12.5214 16.3131 10.2742 14.8116 7.80096 13.7873C5.32775 12.763 2.67696 12.2358 0 12.2359V12.3351C6.7535 12.3351 12.229 25.8591 12.2316 32.6149H12.2303C12.2303 36.6467 13.4257 40.5878 15.6655 43.94C17.9054 47.2923 21.0889 49.9051 24.8137 51.4479C28.5384 52.9911 32.637 53.3949 36.5914 52.6083C40.5455 51.822 44.1778 49.8806 47.0288 47.0301C49.8796 44.1793 51.8212 40.5473 52.6081 36.5929C53.3949 32.6388 52.9913 28.5402 51.4487 24.8153C49.9061 21.0904 47.2936 17.9066 43.9416 15.6665C40.5893 13.4264 36.6482 12.2306 32.6166 12.2303Z" fill="url(#paint0_linear)"/>
<defs>
<linearGradient id="paint0_linear" x1="42.241" y1="45.845" x2="11.448" y2="3.551" gradientUnits="userSpaceOnUse">
<stop offset="0.295" stop-color="#E73959"/>
<stop offset="0.384" stop-color="#E73D58"/>
<stop offset="0.477" stop-color="#E74955"/>
<stop offset="0.571" stop-color="#E95E51"/>
<stop offset="0.666" stop-color="#EA7B4B"/>
<stop offset="0.761" stop-color="#EDA044"/>
<stop offset="0.857" stop-color="#EFCE3B"/>
<stop offset="0.868" stop-color="#F0D43A"/>
</linearGradient>
</defs>
</svg>
