<svg width="22" height="17" viewBox="0 0 22 17" fill="none" xmlns="http://www.w3.org/2000/svg">
<path d="M16.9041 0.881348H5.15069C2.63023 0.881348 0.57991 2.93167 0.57991 5.45212V11.9818C0.57991 14.5023 2.63023 16.5526 5.15069 16.5526H16.9041C19.4246 16.5526 21.4749 14.5023 21.4749 11.9818V5.45212C21.4749 2.93167 19.4246 0.881348 16.9041 0.881348ZM20.1689 11.9818C20.1689 13.782 18.7043 15.2466 16.9041 15.2466H5.15069C3.35045 15.2466 1.88585 13.782 1.88585 11.9818V5.45212C1.88585 3.65189 3.35045 2.18728 5.15069 2.18728H16.9041C18.7043 2.18728 20.1689 3.65189 20.1689 5.45212V11.9818Z" fill="white"/>
<path d="M14.5573 8.11994L8.68063 5.50807C8.47821 5.41796 8.2451 5.4369 8.05966 5.55704C7.87422 5.67784 7.76256 5.88418 7.76256 6.10488V11.3286C7.76256 11.5493 7.87422 11.7557 8.05966 11.8758C8.1674 11.9457 8.29146 11.9816 8.41553 11.9816C8.50564 11.9816 8.59575 11.9633 8.68063 11.9254L14.5573 9.31357C14.7931 9.20844 14.9452 8.97468 14.9452 8.71676C14.9452 8.45883 14.7931 8.22507 14.5573 8.11994ZM9.06849 10.3237V7.1098L12.6846 8.71676L9.06849 10.3237Z" fill="white"/>
</svg>
