<?xml version="1.0" encoding="utf-8"?>
<!-- Generator: Adobe Illustrator 23.0.6, SVG Export Plug-In . SVG Version: 6.00 Build 0)  -->
<svg version="1.1" id="Слой_1" xmlns="http://www.w3.org/2000/svg" xmlns:xlink="http://www.w3.org/1999/xlink" x="0px" y="0px"
	 viewBox="0 0 150 50" style="enable-background:new 0 0 150 50;" xml:space="preserve">
<style type="text/css">
	.st0{fill:#FFFFFF;}
</style>
<g>
	<path class="st0" d="M70.6,40.36c-3.93,0-7.12-3.2-7.12-7.12V19.5h2.82l0.49,3.11h3.75l0.29,1.86l-3.34,2.44l0,6.33
		c0,1.86,1.51,3.37,3.37,3.37h0.27v3.75H70.6z"/>
	<polygon class="st0" points="26.72,8.2 17.55,1.54 8.37,8.2 8.37,13.55 17.55,6.88 26.72,13.55 	"/>
	<path class="st0" d="M142.37,22.61h-4.02l0,12.87c-0.77,0.72-1.78,1.12-2.86,1.12c-2.32,0-4.2-1.88-4.2-4.2v-9.8h-4.02l0,8.81v1.66
		c0,4.17,3.38,7.55,7.55,7.55c1.28,0,2.48-0.33,3.53-0.89v0.12c0,2.83-2.29,5.13-5.13,5.13h-1.46v3.75l1.73,0
		c4.9,0,8.87-3.97,8.87-8.87L142.37,22.61z"/>
	<path class="st0" d="M103.22,35.35c-0.7,0-1.38,0.28-1.87,0.77c-0.49,0.49-0.77,1.17-0.77,1.86c0,0.7,0.28,1.38,0.77,1.87
		c0.49,0.49,1.17,0.77,1.87,0.77c0.69,0,1.37-0.28,1.87-0.77c0.49-0.49,0.77-1.17,0.77-1.87c0-0.69-0.28-1.37-0.77-1.86
		C104.59,35.63,103.91,35.35,103.22,35.35z"/>
	<path class="st0" d="M54.98,32.73c1.07,0,1.94,0.87,1.94,1.94c0,1.07-0.87,1.94-1.94,1.94h-6.27v3.75h6.55
		c3.14,0,5.69-2.55,5.69-5.69s-2.55-5.69-5.69-5.69h-1.99c-0.72,0-1.31-0.59-1.31-1.31s0.59-1.31,1.31-1.31h5.27v-3.75h-5.54
		c-2.79,0-5.06,2.27-5.06,5.06s2.26,5.06,5.06,5.06H54.98z"/>
	<path class="st0" d="M36.9,22.34c-5.04,0-9.15,4.1-9.15,9.14c0,5.04,4.1,9.14,9.15,9.14c5.04,0,9.15-4.1,9.15-9.14
		C46.04,26.44,41.94,22.34,36.9,22.34z M36.9,36.61c-2.83,0-5.13-2.3-5.13-5.12c0-2.83,2.3-5.12,5.13-5.12
		c2.83,0,5.13,2.3,5.13,5.12C42.02,34.31,39.72,36.61,36.9,36.61z"/>
	<path class="st0" d="M98.59,22.61c-3.93,0-7.12,3.2-7.12,7.12v10.62h4.02l0-10.62c0-1.86,1.51-3.37,3.37-3.37h0.31v-3.75H98.59z"/>
	<path class="st0" d="M88.69,25.74c-1.68-2.07-4.24-3.4-7.1-3.4c-5.04,0-9.15,4.1-9.15,9.14c0,5.04,4.1,9.14,9.15,9.14
		c2.43,0,4.64-0.96,6.28-2.51l-2.84-2.84c-0.91,0.82-2.11,1.33-3.43,1.33c-2.83,0-5.12-2.3-5.12-5.12c0-2.83,2.3-5.12,5.12-5.12
		c1.18,0,2.26,0.4,3.12,1.07l-4.53,3.31v4.63l8.52-6.2V25.74z"/>
	<path class="st0" d="M25.1,29.89c0-4.17-3.38-7.55-7.55-7.55c-1.25,0-2.44,0.31-3.48,0.85l-1.25-7.91H10v25.07h4.02V27.48
		c0.77-0.72,1.78-1.12,2.86-1.12c2.32,0,4.2,1.88,4.2,4.2v9.8h4.02L25.1,29.89z"/>
	<path class="st0" d="M122.08,25.02c-1.76-1.76-4.06-2.64-6.37-2.67c-1.25,0-2.44,0.29-3.48,0.84l-1.25-7.91h-2.82v21.49
		c0.29,0.41,0.62,0.81,0.99,1.18c3.57,3.56,9.37,3.56,12.93,0C125.64,34.39,125.64,28.59,122.08,25.02z M119.23,35.11
		c-1.94,1.94-5.05,1.99-7.06,0.17V27.7c2.01-1.82,5.12-1.77,7.06,0.17C121.23,29.86,121.23,33.11,119.23,35.11z"/>
</g>
</svg>
