<?xml version="1.0" encoding="utf-8"?>
<!-- Generator: Adobe Illustrator 23.0.6, SVG Export Plug-In . SVG Version: 6.00 Build 0)  -->
<svg version="1.1" id="Слой_1" xmlns="http://www.w3.org/2000/svg" xmlns:xlink="http://www.w3.org/1999/xlink" x="0px" y="0px"
	 viewBox="0 0 25 55" style="enable-background:new 0 0 25 55;" xml:space="preserve">
<style type="text/css">
	.st0{fill:#CDD944;}
</style>
<path class="st0" d="M0.17,5.23c0,1.89,1.14,3.6,2.88,4.33c7.2,3.02,12.27,10.12,12.27,18.4c0,4.56-1.56,8.75-4.16,12.1l-0.41-2.63
	c-0.14-0.9-0.85-1.6-1.75-1.72c-0.9-0.12-1.77,0.36-2.15,1.19l-6.5,14.46c-0.28,0.63-0.23,1.37,0.15,1.95
	c0.38,0.58,1.02,0.94,1.72,0.94l15.93,0.07c0.91,0.01,1.71-0.59,1.97-1.45c0.26-0.87-0.07-1.8-0.83-2.31l-2.99-1.99
	c5.23-5.31,8.46-12.59,8.46-20.62c0-12.17-7.43-22.63-18-27.1C5.3,0.24,3.62,0.4,2.3,1.28C0.97,2.15,0.17,3.64,0.17,5.23z"/>
</svg>
