<?xml version="1.0" encoding="utf-8"?>
<!-- Generator: Adobe Illustrator 23.0.6, SVG Export Plug-In . SVG Version: 6.00 Build 0)  -->
<svg version="1.1" id="Слой_1" xmlns="http://www.w3.org/2000/svg" xmlns:xlink="http://www.w3.org/1999/xlink" x="0px" y="0px"
	 viewBox="0 0 241 370" style="enable-background:new 0 0 241 370;" xml:space="preserve">
<style type="text/css">
	.st0{fill:#CCCCCC;}
	.st1{fill:#507899;}
	.st2{fill:#B0CFE6;}
	.st3{fill:#13183C;}
	.st4{fill:#76A2CA;}
	.st5{clip-path:url(#SVGID_2_);}
	.st6{fill:#FFFFFF;}
	.st7{clip-path:url(#SVGID_4_);}
	.st8{clip-path:url(#SVGID_6_);}
	.st9{clip-path:url(#SVGID_8_);}
	.st10{fill:none;}
	.st11{opacity:0.49;fill:url(#SVGID_9_);}
	.st12{clip-path:url(#SVGID_11_);}
	.st13{opacity:0.3;clip-path:url(#SVGID_14_);fill:url(#SVGID_15_);}
	.st14{clip-path:url(#SVGID_17_);fill:url(#SVGID_18_);}
	.st15{fill:#E1E34A;}
	.st16{fill:#00546F;}
	.st17{fill:#362B65;}
	.st18{fill:#C82246;}
</style>
<g>
	<path class="st0" d="M181.24,83.25v-2.41h9.33v2.41H181.24z"/>
	<path class="st0" d="M194.93,81.91v-2.24h3.7c-0.48-1.11-1.56-1.79-2.96-1.79c-1,0-1.91,0.26-2.76,0.79v-2.7
		c0.85-0.42,1.77-0.62,2.79-0.62c1.73,0,3.16,0.52,4.29,1.57c1.14,1.05,1.71,2.39,1.71,4.04s-0.57,2.99-1.71,4.04
		s-2.58,1.57-4.3,1.57c-1.1,0-2.08-0.23-2.96-0.68v-2.71c0.76,0.57,1.7,0.86,2.84,0.86c1.62,0,2.82-0.79,3.19-2.14H194.93z"/>
	<path class="st0" d="M203.34,86.37v-7.84h2.68v3.89l2.82-3.89h2.56v7.84h-2.68v-3.87l-2.82,3.87H203.34z M206.31,75.15
		c0.01,0.6,0.4,0.97,1.03,0.97s1.02-0.37,1.03-0.97h1.9c-0.01,0.85-0.29,1.51-0.85,1.99c-0.54,0.48-1.23,0.73-2.07,0.73
		s-1.53-0.25-2.08-0.73c-0.54-0.48-0.82-1.14-0.83-1.99H206.31z"/>
	<path class="st0" d="M212.67,88.71l1.39-5.06h2.78l-1.99,5.06H212.67z"/>
	<path class="st0" d="M180.71,101.79v-7.84h7.82v7.84h-2.73v-5.65h-2.36v5.65H180.71z"/>
	<path class="st0" d="M190.57,101.26c-0.52-0.48-0.79-1.11-0.79-1.88c0.02-1.77,1.62-2.58,3.05-2.53c0.79,0,1.45,0.14,1.99,0.4
		v-0.11c0-0.56-0.23-0.93-0.65-1.06c-0.39-0.14-0.69-0.18-1.17-0.18c-0.82,0-1.59,0.18-2.28,0.57v-2.14
		c0.82-0.39,1.8-0.57,2.95-0.57c1.16,0,2.08,0.29,2.79,0.86c0.71,0.57,1.06,1.33,1.06,2.3v2.38c0,0.28,0.15,0.42,0.46,0.42
		c0.19,0,0.34-0.03,0.45-0.09v1.94c-0.34,0.26-0.8,0.4-1.39,0.4c-0.91,0-1.56-0.29-1.91-0.89c-0.63,0.62-1.47,0.92-2.5,0.92
		C191.79,101.99,191.09,101.74,190.57,101.26z M194.83,99.47v-0.82c-0.31-0.23-0.69-0.34-1.14-0.34c-0.68,0-1.22,0.37-1.22,0.94
		c0,0.56,0.48,0.9,1.09,0.9C194.12,100.15,194.53,99.92,194.83,99.47z"/>
	<path class="st0" d="M199.84,104.87V93.95h2.73v0.88c0.54-0.73,1.31-1.08,2.34-1.08s1.88,0.4,2.56,1.19
		c0.68,0.79,1.02,1.76,1.02,2.93c0,1.17-0.34,2.16-1.02,2.95c-0.68,0.79-1.53,1.17-2.56,1.17c-1,0-1.79-0.35-2.34-1.08v3.96H199.84z
		 M205.78,97.87c0-1.03-0.68-1.81-1.65-1.81c-0.69,0-1.2,0.28-1.56,0.83v1.94c0.35,0.55,0.86,0.83,1.56,0.83
		C205.1,99.67,205.78,98.9,205.78,97.87z"/>
	<path class="st0" d="M210.65,100.88c-0.85-0.76-1.27-1.76-1.27-3.01c0-1.16,0.39-2.14,1.14-2.93c0.76-0.79,1.76-1.19,3.01-1.19
		c1.11,0,2.02,0.39,2.71,1.16c0.71,0.76,1.06,1.74,1.06,2.95v0.68h-5.25c0.23,0.82,1.16,1.22,2.28,1.22c0.85,0,1.7-0.23,2.51-0.68
		v2.1c-0.74,0.54-1.77,0.82-3.12,0.82C212.53,101.99,211.5,101.62,210.65,100.88z M214.64,97.08c-0.02-0.79-0.57-1.33-1.23-1.33
		c-0.72,0-1.25,0.51-1.36,1.33H214.64z"/>
	<path class="st0" d="M218.76,101.79v-7.84h2.73v2.73h2.44v-2.73h2.73v7.84h-2.73v-2.92h-2.44v2.92H218.76z"/>
	<path class="st0" d="M228.53,101.79v-7.84h2.73v2.14h1.45c1,0,1.82,0.26,2.44,0.77c0.62,0.51,0.93,1.2,0.93,2.07
		c0,0.8-0.28,1.48-0.85,2.04c-0.55,0.54-1.34,0.82-2.38,0.82H228.53z M231.26,99.78h1.02c0.66,0,1.06-0.32,1.06-0.88
		s-0.4-0.89-1.06-0.89h-1.02V99.78z"/>
	<path class="st0" d="M236.83,104.13l1.39-5.06H241l-1.99,5.06H236.83z"/>
	<path class="st0" d="M180.08,119.04v-4.03h0.99c0.48-0.79,0.72-2.08,0.77-3.89l0.05-1.76h6.97v5.65h1.2v4.03h-2.58v-1.84h-4.8v1.84
		H180.08z M186.17,115.02v-3.49h-1.88c-0.05,1.42-0.22,2.58-0.51,3.49H186.17z"/>
	<path class="st0" d="M195.32,117.41c-1.28,0-2.33-0.39-3.16-1.17c-0.83-0.79-1.25-1.77-1.25-2.95c0-1.17,0.42-2.14,1.25-2.93
		c0.83-0.79,1.88-1.19,3.16-1.19s2.33,0.4,3.16,1.19c0.83,0.79,1.25,1.76,1.25,2.93c0,1.17-0.42,2.16-1.25,2.95
		C197.65,117.02,196.6,117.41,195.32,117.41z M195.32,111.5c-1,0-1.73,0.79-1.73,1.79c0,1.03,0.72,1.79,1.73,1.79
		s1.73-0.76,1.73-1.79C197.05,112.29,196.32,111.5,195.32,111.5z"/>
	<path class="st0" d="M201.12,117.21v-7.84h2.7l1.87,2.58l1.87-2.58h2.7v7.84h-2.58v-4.2l-1.45,2.01h-1.08l-1.45-2.01v4.2H201.12z"
		/>
	<path class="st0" d="M212.9,116.3c-0.85-0.76-1.27-1.76-1.27-3.01c0-1.16,0.39-2.14,1.14-2.93c0.76-0.79,1.76-1.19,3.01-1.19
		c1.11,0,2.02,0.39,2.71,1.16c0.71,0.76,1.06,1.74,1.06,2.95v0.68h-5.25c0.23,0.82,1.16,1.22,2.28,1.22c0.85,0,1.7-0.23,2.51-0.68
		v2.1c-0.74,0.54-1.77,0.82-3.12,0.82C214.78,117.41,213.75,117.04,212.9,116.3z M216.89,112.5c-0.02-0.79-0.57-1.33-1.23-1.33
		c-0.72,0-1.25,0.51-1.36,1.33H216.89z"/>
	<path class="st0" d="M221.01,117.21v-7.84h2.73v2.73h2.44v-2.73h2.73v7.84h-2.73v-2.92h-2.44v2.92H221.01z"/>
	<path class="st0" d="M180.71,132.63v-7.84h2.73v2.73h2.44v-2.73h2.73v7.84h-2.73v-2.92h-2.44v2.92H180.71z"/>
	<path class="st0" d="M190.32,135.45v-2.34c0.39,0.25,0.82,0.37,1.26,0.37c0.69,0,1.13-0.31,1.45-1.11l-3.33-7.57h2.9l1.74,4.72
		l1.64-4.72h2.84l-3.5,8.62c-0.65,1.59-1.73,2.39-3.25,2.39C191.4,135.81,190.82,135.68,190.32,135.45z"/>
	<path class="st0" d="M198.79,132.63l3.12-4.17l-2.65-3.67h3.02l1.96,2.81v-2.81h2.68v2.81l1.94-2.81h3.04l-2.65,3.67l3.12,4.17
		h-3.19l-2.25-3.13v3.13h-2.68v-3.13l-2.25,3.13H198.79z"/>
	<path class="st0" d="M213.61,131.72c-0.85-0.76-1.27-1.76-1.27-3.01c0-1.16,0.39-2.14,1.14-2.93c0.76-0.79,1.76-1.19,3.01-1.19
		c1.11,0,2.02,0.39,2.71,1.16c0.71,0.76,1.06,1.74,1.06,2.95v0.68h-5.25c0.23,0.82,1.16,1.22,2.28,1.22c0.85,0,1.7-0.23,2.51-0.68
		v2.1c-0.74,0.54-1.77,0.82-3.12,0.82C215.49,132.83,214.46,132.46,213.61,131.72z M217.6,127.92c-0.02-0.79-0.57-1.33-1.23-1.33
		c-0.72,0-1.25,0.51-1.36,1.33H217.6z"/>
	<path class="st0" d="M221.72,132.63v-7.84h2.73v2.73h2.44v-2.73h2.73v7.84h-2.73v-2.92h-2.44v2.92H221.72z"/>
	<path class="st0" d="M232.65,128.9v-2.3c0.68-0.12,1.28-0.32,1.79-0.62c0.51-0.29,0.77-0.63,0.77-1.02c0-0.6-0.49-0.89-1.5-0.89
		c-0.86,0-1.8,0.28-2.81,0.82v-2.38c0.91-0.6,2.01-0.89,3.27-0.89c1.06,0,1.96,0.28,2.7,0.82c0.76,0.54,1.13,1.33,1.13,2.33
		c0,0.76-0.28,1.4-0.83,1.94c-0.54,0.54-1.19,0.93-1.93,1.16v1.03H232.65z M233.99,132.84c-0.45,0-0.83-0.15-1.16-0.48
		c-0.31-0.32-0.46-0.71-0.46-1.16s0.15-0.83,0.48-1.14c0.63-0.63,1.65-0.63,2.28,0c0.32,0.31,0.48,0.69,0.48,1.14
		s-0.15,0.83-0.48,1.16C234.83,132.69,234.44,132.84,233.99,132.84z"/>
</g>
<g>
	<g>
		<g>
			<g>
				<path class="st1" d="M162.95,236.69l-4.41-1.45c2.01-6.12,0.16-11.26-2.19-17.78c-1.4-3.9-2.99-8.31-3.77-13.37l4.59-0.71
					c0.71,4.61,2.15,8.62,3.55,12.5C163.16,222.65,165.47,229.05,162.95,236.69z"/>
			</g>
		</g>
		<g>
			<g>
				<path class="st1" d="M148.23,237.83l-4.15-2.08l0.36-0.72c3.8-7.56,6.09-12.13,2.8-19.12c-1.96-4.16-5.62-11.89-2.61-17.58
					l4.11,2.17c-1.92,3.63,1.32,10.5,2.7,13.43c4.26,9.03,1.13,15.28-2.85,23.19L148.23,237.83z"/>
			</g>
		</g>
		<g>
			<path class="st1" d="M150.63,245.95c0.04-0.08,0.08-0.15,0.12-0.23c1.88-4.26-0.04-9.24-4.3-11.12
				c-4.26-1.88-9.24,0.04-11.12,4.3c-0.04,0.08-0.06,0.16-0.09,0.24L150.63,245.95z"/>
		</g>
		<g>
			<path class="st1" d="M166.58,246.28c0.04-0.08,0.08-0.15,0.12-0.23c1.88-4.26-0.04-9.24-4.3-11.12
				c-4.26-1.88-9.24,0.04-11.12,4.3c-0.04,0.08-0.06,0.16-0.09,0.24L166.58,246.28z"/>
		</g>
		<g>
			<path class="st2" d="M166.57,204.16c-2.99,5.98-8.51,6.62-16.58,2.58l0,0c-8.06-4.04-10.85-8.85-7.85-14.82l4.79-15.52
				c2.99-5.98,11.96-7.55,20.02-3.51l0,0c8.16,4.13,13.87,11.62,9.17,18.14L166.57,204.16z"/>
		</g>
		<g>
			<path class="st3" d="M188.54,165.85c-1.21,2.21-3.98,3.02-6.19,1.81l-8.32-4.57c-2.21-1.21-3.02-3.98-1.81-6.19l0,0
				c1.21-2.21,3.98-3.02,6.19-1.81l8.32,4.57C188.94,160.87,189.75,163.65,188.54,165.85L188.54,165.85z"/>
		</g>
		<g>
			<path class="st2" d="M177.22,174.56c-1.9,3.46-6.74,4.46-10.82,2.22l0,0c-4.08-2.24-5.84-6.85-3.94-10.32l8.22-14.99
				c1.9-3.46,6.74-4.46,10.82-2.22l0,0c4.08,2.24,5.84,6.85,3.94,10.32L177.22,174.56z"/>
		</g>
		<g>
			<path class="st4" d="M187.88,166.53c-1.21,2.21-5.69,4.19-8.4,2.83l-8.32-4.56c-2.21-1.21-3.02-3.98-1.81-6.19l0,0
				c1.21-2.21,5.61-4.87,7.82-3.66l6.7,6.42c2.21,1.21,3.02,3.98,1.81,6.19L187.88,166.53z"/>
		</g>
		<g>
			<path class="st3" d="M188.54,165.85c-1.21,2.21-3.98,3.02-6.19,1.81l-8.32-4.57c-2.21-1.21-3.02-3.98-1.81-6.19l0,0
				c1.21-2.21,3.98-3.02,6.19-1.81l8.32,4.57C188.94,160.87,189.75,163.65,188.54,165.85L188.54,165.85z"/>
		</g>
		<g>
			<defs>
				<path id="SVGID_1_" d="M188.54,165.85c-1.21,2.21-3.98,3.02-6.19,1.81l-8.32-4.57c-2.21-1.21-3.02-3.98-1.81-6.19l0,0
					c1.21-2.21,3.98-3.02,6.19-1.81l8.32,4.57C188.94,160.87,189.75,163.65,188.54,165.85L188.54,165.85z"/>
			</defs>
			<clipPath id="SVGID_2_">
				<use xlink:href="#SVGID_1_"  style="overflow:visible;"/>
			</clipPath>
			<g class="st5">
				<g>
					<circle class="st6" cx="176.38" cy="161.28" r="3.69"/>
				</g>
				<g>
					<circle class="st3" cx="176.25" cy="160.47" r="1.17"/>
				</g>
				<g>
					<circle class="st6" cx="183.36" cy="165.02" r="3.69"/>
				</g>
				<g>
					<circle class="st3" cx="183.65" cy="164.25" r="1.17"/>
				</g>
			</g>
		</g>
		<g>
			
				<rect x="178.01" y="147.4" transform="matrix(0.4181 -0.9084 0.9084 0.4181 -28.7022 251.5455)" class="st2" width="7.95" height="1.55"/>
		</g>
		<g>
			<circle class="st2" cx="184.23" cy="143.48" r="1.74"/>
		</g>
		<g>
			<defs>
				<path id="SVGID_3_" d="M177.34,174.35c-1.96,3.58-6.86,4.67-10.94,2.44l0,0c-4.08-2.24-5.79-6.95-3.82-10.53l8.51-15.51
					c1.96-3.58,6.86-4.67,10.94-2.44l0,0c4.08,2.24,5.79,6.95,3.82,10.53L177.34,174.35z"/>
			</defs>
			<clipPath id="SVGID_4_">
				<use xlink:href="#SVGID_3_"  style="overflow:visible;"/>
			</clipPath>
			<g class="st7">
				<g>
					<path class="st6" d="M177.15,171.84c-0.69,1.25-1.05,1.54-1.03,2.27l-4.71-2.58c-1.25-0.69-1.71-2.25-1.02-3.5l0,0
						c0.69-1.25,2.25-1.71,3.5-1.02l4.71,2.58c-0.35-0.1-0.71,0.89-1.39,2.14L177.15,171.84z"/>
				</g>
				<g>
					<defs>
						<path id="SVGID_5_" d="M179.62,173.09c-0.69,1.25-2.25,1.71-3.5,1.02l-4.71-2.58c-1.25-0.69-1.71-2.25-1.02-3.5l0,0
							c0.69-1.25,2.25-1.71,3.5-1.02l4.71,2.58C179.85,170.28,180.31,171.84,179.62,173.09L179.62,173.09z"/>
					</defs>
					<clipPath id="SVGID_6_">
						<use xlink:href="#SVGID_5_"  style="overflow:visible;"/>
					</clipPath>
					<g class="st8">
						<g>
							<g>
								<polygon class="st4" points="177.09,172.01 169.85,168.06 170.03,167.72 177.27,171.67 								"/>
							</g>
						</g>
						<g>
							<g>
								
									<rect x="169.01" y="168.85" transform="matrix(0.469 -0.8832 0.8832 0.469 -57.9494 241.696)" class="st4" width="6.03" height="0.39"/>
							</g>
						</g>
						<g>
							<g>
								
									<rect x="170.78" y="169.75" transform="matrix(0.469 -0.8832 0.8832 0.469 -57.8039 243.7402)" class="st4" width="6.03" height="0.39"/>
							</g>
						</g>
						<g>
							<g>
								
									<rect x="172.58" y="170.65" transform="matrix(0.469 -0.8832 0.8832 0.469 -57.6423 245.8098)" class="st4" width="6.03" height="0.39"/>
							</g>
						</g>
						<g>
							<g>
								
									<rect x="174.18" y="171.61" transform="matrix(0.469 -0.8832 0.8832 0.469 -57.6414 247.7314)" class="st4" width="6.03" height="0.39"/>
							</g>
						</g>
					</g>
				</g>
			</g>
		</g>
		<g>
			<path class="st2" d="M199.47,181.87c0.41-0.41,1-0.58,1.57-0.71c2.47-0.55,5.05-0.59,7.53-0.1c0.82,0.16,1.64,0.39,2.34,0.84
				c0.7,0.46,1.26,1.18,1.35,2.01c0.15,1.38-1.09,2.62-2.46,2.87c-1.36,0.25-2.76-0.28-3.93-1.01c0.68,0.32,1.36,0.74,1.71,1.4
				s0.25,1.62-0.4,2c-0.61,0.36-1.39,0.08-1.98-0.29c-1.28-0.82-2.23-2.13-2.62-3.6c0.34,0.54,0.01,1.31-0.56,1.58
				c-0.57,0.26-1.28,0.09-1.77-0.31s-0.8-0.98-1.03-1.56C198.82,183.96,198.68,182.65,199.47,181.87z"/>
		</g>
		<g>
			<defs>
				<path id="SVGID_7_" d="M166.57,204.16c-2.99,5.98-8.52,7.11-16.58,3.07h-0.19c-8.06-4.04-10.65-9.34-7.66-15.31l4.79-15.52
					c2.99-5.98,11.96-7.55,20.02-3.51l0,0c8.16,4.13,13.87,11.62,9.17,18.14L166.57,204.16z"/>
			</defs>
			<clipPath id="SVGID_8_">
				<use xlink:href="#SVGID_7_"  style="overflow:visible;"/>
			</clipPath>
			<g class="st9">
				<path class="st1" d="M166.28,204.09c-0.48,1.9-1.9,4.41-4.09,5.38c-3.95,1.74-8.51,0.54-12.1-1.26
					c-3.65-1.83-9.7-6.2-10.55-10.55c-0.61-3.14,4.06-12.77,6-17.61C150.96,158.37,166.8,202.02,166.28,204.09z"/>
			</g>
		</g>
		<g>
			<path class="st10" d="M176.55,187.97l-4.19-2.01c2.34-4.87,5-8.46,8.16-10.99c4.11-3.3,9.26-4.74,13.79-3.86
				c5.43,1.06,9.7,5.52,10.15,10.62l-4.63,0.41c-0.27-3.03-3.03-5.81-6.41-6.47c-3.21-0.62-6.94,0.47-10,2.93
				C180.82,180.68,178.58,183.75,176.55,187.97z"/>
		</g>
		<g>
			<g>
				<path class="st2" d="M176.55,187.97l-4.19-2.01c2.34-4.87,5-8.46,8.16-10.99c4.11-3.3,9.26-4.74,13.79-3.86
					c5.43,1.06,9.7,5.52,10.15,10.62l-4.63,0.41c-0.27-3.03-3.03-5.81-6.41-6.47c-3.21-0.62-6.94,0.47-10,2.93
					C180.82,180.68,178.58,183.75,176.55,187.97z"/>
			</g>
		</g>
		<g>
			<path class="st6" d="M167.12,196.37c-0.27,0-0.54-0.07-0.79-0.22c-0.73-0.44-0.97-1.39-0.53-2.12l5.08-8.49
				c0.44-0.73,1.39-0.97,2.12-0.53c0.73,0.44,0.97,1.39,0.53,2.12l-5.08,8.49C168.16,196.1,167.65,196.37,167.12,196.37z"/>
		</g>
		<g>
			<g>
				<g>
					<path class="st2" d="M155.08,172.65l-4.43,1.41c-1.64-5.15-2.16-9.59-1.6-13.6c0.73-5.22,3.49-9.8,7.39-12.27
						c10.2-6.36,11.16-0.74,2.48,3.93c-2.76,1.74-4.73,5.1-5.27,8.98C153.19,164.4,153.66,168.18,155.08,172.65z"/>
				</g>
			</g>
			<g>
				<path class="st2" d="M160.03,145.7c3.89-1.68,8.03-2.59,12.18-2.69c0.46-0.01,1.04,0.1,1.15,0.62c0.09,0.47-0.31,0.86-0.66,1.11
					c-0.89,0.63-1.82,1.17-2.79,1.63c0.59-0.22,1.2-0.45,1.81-0.33c0.61,0.11,1.21,0.69,1.2,1.41c0,0.55-0.35,1.04-0.76,1.3
					c-0.42,0.26-0.9,0.33-1.36,0.41c-1.71,0.26-3.41,0.52-5.12,0.78c-0.89,0.13-1.78,0.27-2.67,0.15s-1.78-0.53-2.36-1.31
					c-0.83-1.11-0.89-2.82-0.35-4.15c0.54-1.33,1.6-2.3,2.75-2.89s2.41-0.84,3.66-1.04c0.57-0.09,1.24-0.14,1.61,0.38
					c0.34,0.49,0.21,1.26-0.16,1.72c-0.36,0.47-0.89,0.7-1.39,0.92"/>
			</g>
		</g>
	</g>
	<g>
		<linearGradient id="SVGID_9_" gradientUnits="userSpaceOnUse" x1="154.9682" y1="278.9537" x2="66.9429" y2="37.1063">
			<stop  offset="0.2602" style="stop-color:#C0E2F8"/>
			<stop  offset="0.3668" style="stop-color:#BDDEF5;stop-opacity:0.8406"/>
			<stop  offset="0.4765" style="stop-color:#B5D2EE;stop-opacity:0.6767"/>
			<stop  offset="0.5876" style="stop-color:#A6BDE1;stop-opacity:0.5106"/>
			<stop  offset="0.6996" style="stop-color:#92A0CE;stop-opacity:0.3431"/>
			<stop  offset="0.8114" style="stop-color:#787BB7;stop-opacity:0.176"/>
			<stop  offset="0.8622" style="stop-color:#6B68AB;stop-opacity:0.1"/>
		</linearGradient>
		<polygon class="st11" points="165.83,246.31 56.08,314.95 56.08,70.34 165.83,1.11 		"/>
		<g>
			<defs>
				<polygon id="SVGID_10_" points="165.83,246.31 56.08,314.95 56.08,133.02 165.83,63.8 				"/>
			</defs>
			<clipPath id="SVGID_11_">
				<use xlink:href="#SVGID_10_"  style="overflow:visible;"/>
			</clipPath>
			<g class="st12">
				<defs>
					<path id="SVGID_12_" d="M51.35,271.15c-0.01-3.37,0.09-7.05,2.27-9.62c2.35-2.77,6.31-3.33,9.64-4.77
						c9.81-4.24,14.02-16.1,22.91-22.02c4.31-2.87,9.64-4.28,13.29-7.95c6.95-6.97,5.67-19.76,13.39-25.86
						c6.84-5.4,16.95-2.67,25.23-5.37c5.8-5.66,6.88-6.66,14.14-15.93c0.9,1.41,2.18,3.08,3.08,4.37c1.72-2.68,4.7-7.46,6.42-10.14
						c2.7,4.24,4.24,6.8,4.75,9.24c1.15,2.35,1.47,1.63,1.51,4.25c0.1,7.24,0.19,14.6-1.82,21.55
						c-3.8,13.15-14.52,23.03-25.33,31.43C117.22,258.65,91,273.28,64.9,287.84c-1.88,1.05-3.81,2.12-5.94,2.48
						c-2.13,0.37-4.52-0.1-5.95-1.71c-1.53-1.72-1.62-4.25-1.62-6.55C51.37,278.43,51.36,274.79,51.35,271.15z"/>
				</defs>
				<linearGradient id="SVGID_13_" gradientUnits="userSpaceOnUse" x1="51.3453" y1="232.1503" x2="168.0269" y2="232.1503">
					<stop  offset="0" style="stop-color:#F8EF74"/>
					<stop  offset="0.1327" style="stop-color:#F4EA75"/>
					<stop  offset="0.298" style="stop-color:#E7DA79"/>
					<stop  offset="0.4807" style="stop-color:#D2C180"/>
					<stop  offset="0.676" style="stop-color:#B49D89"/>
					<stop  offset="0.8789" style="stop-color:#8F7094"/>
					<stop  offset="1" style="stop-color:#76529C"/>
				</linearGradient>
				<use xlink:href="#SVGID_12_"  style="overflow:visible;fill:url(#SVGID_13_);"/>
				<clipPath id="SVGID_14_">
					<use xlink:href="#SVGID_12_"  style="overflow:visible;"/>
				</clipPath>
				<linearGradient id="SVGID_15_" gradientUnits="userSpaceOnUse" x1="56.0812" y1="205.4718" x2="165.83" y2="205.4718">
					<stop  offset="0" style="stop-color:#F8EF74"/>
					<stop  offset="0.1327" style="stop-color:#F4EA75"/>
					<stop  offset="0.298" style="stop-color:#E7DA79"/>
					<stop  offset="0.4807" style="stop-color:#D2C180"/>
					<stop  offset="0.676" style="stop-color:#B49D89"/>
					<stop  offset="0.8789" style="stop-color:#8F7094"/>
					<stop  offset="1" style="stop-color:#76529C"/>
				</linearGradient>
				<polygon class="st13" points="165.83,247.85 56.08,316.49 56.08,163.68 165.83,94.46 				"/>
			</g>
		</g>
		<g>
			<defs>
				<polygon id="SVGID_16_" points="165.83,246.31 56.08,314.95 56.08,162.14 165.83,92.92 				"/>
			</defs>
			<clipPath id="SVGID_17_">
				<use xlink:href="#SVGID_16_"  style="overflow:visible;"/>
			</clipPath>
			<linearGradient id="SVGID_18_" gradientUnits="userSpaceOnUse" x1="111.0114" y1="314.6888" x2="111.0114" y2="178.3484">
				<stop  offset="0" style="stop-color:#76529C"/>
				<stop  offset="0.0945" style="stop-color:#8874B2"/>
				<stop  offset="0.2705" style="stop-color:#A6AFD8"/>
				<stop  offset="0.4005" style="stop-color:#B9D4EF"/>
				<stop  offset="0.4694" style="stop-color:#C0E2F8"/>
				<stop  offset="0.6053" style="stop-color:#CFE5D5"/>
				<stop  offset="0.9046" style="stop-color:#F4EE7E"/>
				<stop  offset="0.9388" style="stop-color:#F8EF74"/>
			</linearGradient>
			<path class="st14" d="M54.91,282.08c0-1.37,16.58-21.82,16.58-21.82l11.3-1.03l7.19-9.59l4.79,1.71l20.2-46.56l10.27,8.9
				l14.38-26.7l11.98,18.14l7.87-21.23l2.4,4.45l5.25-10.01l-1.67,70.87L56.47,314.69L54.91,282.08z"/>
		</g>
	</g>
	<g>
		<path class="st15" d="M104.16,161.61c1.72,0.56,3.51,0.85,5.35,0.85c10.48,0,20.79-9.11,25.08-22.16
			c5.12-15.58-0.19-31.37-11.85-35.2c-1.72-0.56-3.51-0.85-5.34-0.85c-10.48,0-20.79,9.11-25.08,22.16
			c-2.47,7.51-2.62,15.29-0.42,21.91C94.11,155.01,98.47,159.74,104.16,161.61z M93.84,126.91c4.08-12.4,13.76-21.05,23.55-21.05
			c1.66,0,3.29,0.26,4.84,0.77c4.82,1.58,8.45,5.42,10.57,10.48c-0.2-0.06-0.35-0.11-0.43-0.11c-0.57,0-19.16,14.8-19.16,14.8
			l20.84,4.37c-0.27,1.21-0.6,2.42-0.99,3.63c-4.08,12.4-13.76,21.06-23.55,21.06c-1.66,0-3.29-0.26-4.84-0.77
			c-5.19-1.71-9.19-6.07-11.25-12.28C91.33,141.51,91.48,134.09,93.84,126.91z"/>
		<path class="st15" d="M71.04,137.09c0.13,0,0.27-0.03,0.39-0.1l11.56-6.53c0.39-0.22,0.52-0.71,0.3-1.1
			c-0.22-0.39-0.71-0.52-1.1-0.3l-11.56,6.53c-0.39,0.22-0.52,0.71-0.3,1.1C70.48,136.94,70.76,137.09,71.04,137.09z"/>
		<path class="st15" d="M139.05,92.75c0.13,0,0.27-0.03,0.39-0.1L151,86.11c0.39-0.22,0.52-0.71,0.3-1.1
			c-0.22-0.39-0.71-0.52-1.1-0.3l-11.56,6.53c-0.39,0.22-0.52,0.71-0.3,1.1C138.49,92.6,138.77,92.75,139.05,92.75z"/>
		<path class="st15" d="M139.05,100.37c0.13,0,0.27-0.03,0.39-0.1L151,93.74c0.39-0.22,0.52-0.71,0.3-1.1
			c-0.22-0.39-0.71-0.52-1.1-0.3l-11.56,6.53c-0.39,0.22-0.52,0.71-0.3,1.1C138.49,100.23,138.77,100.37,139.05,100.37z"/>
		<path class="st15" d="M71.04,151.49c0.13,0,0.27-0.03,0.39-0.1l11.56-6.53c0.39-0.22,0.52-0.71,0.3-1.1
			c-0.22-0.39-0.71-0.52-1.1-0.3l-11.56,6.53c-0.39,0.22-0.52,0.71-0.3,1.1C70.48,151.35,70.76,151.49,71.04,151.49z"/>
		<path class="st15" d="M82.21,136.37l-5.44,2.97c-0.39,0.21-0.53,0.7-0.32,1.09c0.15,0.27,0.42,0.42,0.71,0.42
			c0.13,0,0.26-0.03,0.38-0.1l5.44-2.97c0.39-0.21,0.53-0.7,0.32-1.09C83.09,136.3,82.6,136.16,82.21,136.37z"/>
		<path class="st15" d="M80.59,119.93c0.13,0,0.26-0.03,0.38-0.1l5.44-2.97c0.39-0.21,0.53-0.7,0.32-1.09
			c-0.21-0.39-0.7-0.53-1.09-0.32l-5.44,2.97c-0.39,0.21-0.53,0.7-0.32,1.09C80.03,119.78,80.3,119.93,80.59,119.93z"/>
		<path class="st15" d="M159.05,64.31c-0.25-0.14-0.56-0.15-0.8,0l-95.22,54.24c-0.25,0.14-0.41,0.41-0.41,0.7v82.53
			c0,0.29,0.15,0.55,0.4,0.7c0.13,0.07,0.27,0.11,0.4,0.11c0.14,0,0.27-0.03,0.4-0.11l50.24-28.62v137.73
			c0,2.73-1.47,5.28-3.82,6.65l-52.7,30.68c-2.17,1.26-4.85,1.25-7-0.04l-2.89-1.73c-0.54-0.33-0.86-0.9-0.86-1.53
			c0.01-0.63,0.34-1.2,0.9-1.51l23.07-13.01c1.45-0.82,2.32-2.29,2.34-3.95c0.02-1.66-0.82-3.16-2.25-4.01l-4.32-2.56
			c-2.4-1.42-5.41-1.48-7.87-0.16L35.3,333.08c-4.67,2.53-10.43,2.45-15.03-0.2l-8.61-4.97c-2.72-1.57-3.93-3.56-3.93-6.45v-5.37
			c0-2.5-1.35-4.82-3.53-6.06l-1.45-0.82c-0.39-0.22-0.88-0.08-1.1,0.3c-0.22,0.39-0.08,0.88,0.3,1.1l1.45,0.82
			c1.67,0.95,2.71,2.73,2.71,4.66v5.37c0,3.48,1.51,5.98,4.74,7.84l8.61,4.97c5.08,2.93,11.44,3.02,16.6,0.22l23.36-12.66
			c1.96-1.06,4.36-1.01,6.28,0.12l4.32,2.56c0.93,0.55,1.48,1.53,1.46,2.61c-0.01,1.08-0.58,2.04-1.52,2.57L46.89,342.7
			c-1.06,0.6-1.7,1.68-1.71,2.89c-0.02,1.21,0.6,2.31,1.64,2.93l2.89,1.73c1.34,0.8,2.85,1.2,4.36,1.2c1.48,0,2.95-0.38,4.27-1.15
			l52.7-30.68c2.85-1.66,4.62-4.74,4.62-8.04V172.95c0-0.01,0-0.01,0-0.02l43.38-24.71c0.25-0.14,0.41-0.41,0.41-0.7V65
			C159.45,64.71,159.3,64.45,159.05,64.31z M157.84,147.06l-6.43,3.66v-34.67c0-0.44-0.36-0.8-0.8-0.8s-0.8,0.36-0.8,0.8v35.05
			c0,0.17,0.06,0.32,0.15,0.45l-6.59,3.75v-26.13c0-0.44-0.36-0.8-0.8-0.8c-0.44,0-0.8,0.36-0.8,0.8v27.05l-43.29,24.66v-14.9
			c0-0.44-0.36-0.8-0.8-0.8s-0.8,0.36-0.8,0.8v15.81l-4.76,2.71v-9.78c0-0.44-0.36-0.8-0.8-0.8s-0.8,0.36-0.8,0.8v10.1
			c0,0.19,0.07,0.35,0.18,0.49l-18.17,10.35v-25.73c0-0.44-0.36-0.8-0.8-0.8s-0.8,0.36-0.8,0.8v26.33c0,0.1,0.02,0.2,0.06,0.29
			l-6.73,3.84v-80.68l93.61-53.33V147.06z"/>
	</g>
	<g>
		<g>
			<g>
				<g>
					<g>
						<g>
							<ellipse class="st16" cx="180.26" cy="337.49" rx="22.46" ry="10.65"/>
						</g>
					</g>
				</g>
			</g>
		</g>
		<g>
			<path class="st17" d="M138.03,217.5c0.29,2.25,0.61,4.8,3.01,8.5c2.4,3.7,4.59,5.04,6.52,6.22c1.73,1.06,3.22,1.97,5.05,4.78
				c1.82,2.82,2.05,4.55,2.3,6.56c0.29,2.25,0.61,4.8,3.01,8.5c2.4,3.7,4.59,5.04,6.52,6.22c1.73,1.06,3.22,1.97,5.05,4.78
				c1.82,2.82,2.05,4.55,2.3,6.57c0.29,2.25,0.61,4.8,3.01,8.5c2.4,3.7,4.59,5.04,6.53,6.22c1.73,1.06,3.23,1.97,5.05,4.79
				c0.44,0.68,1.19,1.06,1.95,1.06c0.43,0,0.87-0.12,1.26-0.37c1.07-0.7,1.38-2.13,0.69-3.2c-2.4-3.7-4.59-5.04-6.53-6.22
				c-1.73-1.06-3.23-1.97-5.05-4.79c-1.82-2.82-2.05-4.55-2.3-6.57c-0.29-2.25-0.61-4.8-3.01-8.5c-2.4-3.7-4.59-5.04-6.52-6.22
				c-1.73-1.06-3.22-1.97-5.05-4.78c-1.82-2.82-2.05-4.55-2.3-6.56c-0.29-2.25-0.61-4.8-3.01-8.5c-2.4-3.7-4.59-5.04-6.52-6.22
				c-1.73-1.06-3.22-1.97-5.05-4.78c-1.82-2.82-2.05-4.55-2.3-6.56c-0.29-2.25-0.61-4.8-3.01-8.5c-0.7-1.07-2.13-1.38-3.2-0.68
				c-1.07,0.7-1.38,2.13-0.69,3.2C137.55,213.75,137.77,215.49,138.03,217.5z"/>
			<path class="st17" d="M188.95,300.95c-2.7-1.12-5.53-1.55-8.28-1.97c-3-0.46-5.83-0.89-7.89-2.17c-2.43-1.52-4.15-4.06-5.97-6.75
				c-1.43-2.11-2.9-4.29-4.78-5.98c-2.15-1.93-4.66-3.28-7.09-4.59c-2.69-1.45-5.23-2.81-6.73-4.72c-1.81-2.3-2.62-5.43-3.41-8.46
				c-0.64-2.45-1.29-4.99-2.49-7.16c-1.56-2.82-3.73-5.16-5.65-7.24c-1.95-2.1-3.78-4.09-4.5-6.04c-3.1-8.46-0.77-15-0.74-15.08
				c0.45-1.19-0.16-2.53-1.35-2.98c-1.2-0.45-2.53,0.15-2.99,1.35c-0.12,0.33-2.99,8.14,0.73,18.31c1.03,2.82,3.18,5.14,5.45,7.59
				c1.82,1.97,3.71,4.01,5,6.33c0.92,1.66,1.47,3.8,2.06,6.08c0.86,3.33,1.84,7.1,4.25,10.16c2.1,2.66,5.19,4.33,8.18,5.93
				c2.19,1.18,4.45,2.39,6.19,3.96c1.46,1.31,2.71,3.16,4.04,5.13c2.01,2.97,4.09,6.05,7.35,8.09c2.87,1.79,6.32,2.32,9.65,2.82
				c2.47,0.38,5.03,0.76,7.2,1.67c0.29,0.12,0.59,0.18,0.89,0.18c0.91,0,1.77-0.54,2.14-1.43
				C190.69,302.8,190.13,301.45,188.95,300.95z"/>
		</g>
		<path class="st18" d="M217.88,307.76c-1-0.33-1.93,0.58-2.84,1.11c-0.88,0.51-1.94,0.65-2.94,0.45c-0.01-0.02-0.02-0.05-0.04-0.07
			V284.9c0-8.64-7.44-15.64-16.63-15.64c-6.51,0-12.14,3.53-14.86,8.67c-0.59-0.61-1.19-1.36-1.84-2.36
			c-1.82-2.82-2.05-4.55-2.3-6.57c-0.01-0.09-0.03-0.19-0.04-0.29c0-0.95-0.21-1.88-1.54-2.57c-1.1-0.57-3.2,0.41-3.2,2.16
			c0.07,0.43,0.13,0.85,0.18,1.3c0.29,2.25,0.61,4.8,3.01,8.5c1.46,2.26,2.85,3.63,4.15,4.64c-0.11,0.72-0.18,1.44-0.18,2.18
			c0,0,0,6.77,0,13.77h-0.01c-2.29-0.38-4.4-0.86-6.02-1.88c-2.46-1.53-4.18-4.11-6.02-6.83c-0.69-0.69-1.31-1.45-2.85-1.07
			c-1.2,0.3-2.09,1.57-1.77,2.52c0.28,0.4,0.56,0.81,0.84,1.23c2.01,2.97,4.09,6.05,7.35,8.09c2.54,1.59,5.52,2.18,8.48,2.64
			c0,5.71,0,10.53,0,10.54c0,4.9,2.47,9.18,6.21,12.03v14.15c0,0.35-0.22,0.53-0.36,0.6c-0.13,0.07-0.4,0.17-0.7-0.02l-2.46-1.57
			c-1.08-0.69-2.51-0.37-3.2,0.71c-0.69,1.08-0.37,2.51,0.71,3.2l2.46,1.57c0.87,0.56,1.87,0.84,2.86,0.84
			c0.88,0,1.76-0.22,2.56-0.65c1.7-0.93,2.76-2.72,2.76-4.67v-11.62c4.17,1.52,8.44,1.27,12.46-0.1v8.41c0,0.35-0.22,0.53-0.36,0.6
			c-0.13,0.07-0.4,0.17-0.7-0.02l-2.46-1.57c-1.08-0.69-2.51-0.37-3.2,0.71c-0.69,1.08-0.37,2.51,0.71,3.2l2.46,1.57
			c0.87,0.56,1.87,0.84,2.86,0.84c0.88,0,1.76-0.22,2.56-0.65c1.7-0.93,2.76-2.72,2.76-4.67v-10.52c0.44-0.25,0.88-0.51,1.3-0.78
			c0.55-0.35,1.03-0.82,1.46-1.36c1.34-1.56,1.99-3.45,2.29-5.53c0.06-0.28,0.11-0.57,0.17-0.85c2.55-1.52,4.71-3.68,6.23-6.23
			c0.37-0.62,0.71-1.29,0.73-2.01C218.95,308.76,218.57,307.98,217.88,307.76z"/>
		<g>
			<g>
				<g>
					<ellipse class="st6" cx="188.76" cy="280.01" rx="5.84" ry="6.78"/>
				</g>
			</g>
		</g>
		<g>
			<path class="st17" d="M191.24,289.53c-0.41-0.17-0.89,0.04-1.05,0.45c-0.48,1.21-1.92,2.02-3.21,1.8
				c-1.29-0.22-2.37-1.46-2.42-2.77c-0.02-0.45-0.39-0.8-0.84-0.78c-0.45,0.02-0.8,0.39-0.78,0.84c0.07,1.99,1.62,3.83,3.56,4.27
				c0.07,0.02,0.13,0.03,0.2,0.04c2.03,0.35,4.23-0.88,4.99-2.79C191.86,290.17,191.66,289.7,191.24,289.53z"/>
			<path class="st17" d="M184.35,282.82c3.22,0,5.84-3.04,5.84-6.78c0-0.97-0.18-1.88-0.49-2.71c-0.31-0.06-0.62-0.1-0.94-0.1
				c-3.22,0-5.84,3.04-5.84,6.78c0,0.97,0.18,1.88,0.49,2.71C183.72,282.78,184.03,282.82,184.35,282.82z"/>
		</g>
	</g>
</g>
</svg>
